<svg width="707" height="496" viewBox="0 0 707 496" fill="none" xmlns="http://www.w3.org/2000/svg">
<path d="M700.132 241.248L307.438 469.213C298.762 474.255 284.659 474.255 275.927 469.213L6.64303 313.742C2.24903 311.205 0.0540273 307.876 0.0630273 304.552L2.7576e-05 326.976C-0.00897242 330.3 2.18503 333.629 6.57903 336.166L275.863 491.637C284.595 496.679 298.698 496.679 307.374 491.637L700.068 263.673C704.378 261.168 706.536 257.892 706.545 254.611L706.609 232.187C706.6 235.467 704.442 238.744 700.132 241.248Z" fill="#AFC5D2"/>
<path d="M700.03 222.996C708.762 228.038 708.808 236.207 700.133 241.248L307.439 469.213C298.763 474.255 284.661 474.255 275.928 469.213L6.6437 313.742C-2.0883 308.7 -2.1343 300.532 6.5407 295.49L399.236 67.5256C407.912 62.4836 422.014 62.4836 430.747 67.5256L700.03 222.996Z" fill="white"/>
<path d="M672.323 235.656C671.487 237.593 669.77 239.441 667.141 240.971L309.314 448.679C301.601 453.157 289.068 453.157 281.311 448.679L42.0875 310.555C39.4135 309.015 37.6645 307.133 36.8165 305.163C35.2215 301.4 36.9485 297.274 41.9995 294.336L399.826 86.6378C407.539 82.1598 420.061 82.1598 427.818 86.6378L667.05 224.762C672.168 227.711 673.929 231.882 672.323 235.656Z" fill="#6692AB"/>
<path d="M672.322 235.656C671.486 237.593 669.769 239.441 667.14 240.971L309.313 448.679C301.6 453.157 289.067 453.157 281.31 448.679L42.0874 310.555C39.4134 309.015 37.6644 307.133 36.8164 305.163C37.6524 303.215 39.3694 301.367 41.9994 299.837L399.825 92.1388C407.538 87.6608 420.06 87.6608 427.817 92.1388L667.05 230.263C669.725 231.805 671.474 233.675 672.322 235.656Z" fill="#18476B"/>
<path d="M409.974 421.221C409.983 424.359 407.778 428.168 405.057 429.737C402.735 431.079 400.786 430.363 400.251 428.186C400.16 427.805 400.105 427.379 400.105 426.916C400.096 423.796 402.292 419.978 405.022 418.4C405.321 418.228 405.612 418.092 405.893 417.992C408.205 417.131 409.965 418.446 409.974 421.221Z" fill="#6692AB"/>
<path d="M406.038 419.262C406.047 422.391 403.842 426.209 401.121 427.778C400.822 427.95 400.533 428.086 400.251 428.186C400.16 427.805 400.105 427.379 400.105 426.916C400.096 423.796 402.292 419.978 405.022 418.4C405.321 418.228 405.612 418.092 405.893 417.992C405.983 418.374 406.038 418.8 406.038 419.262Z" fill="#44798E"/>
<path d="M118.244 388.777L118.227 394.751L157.368 417.349L157.385 411.376L118.244 388.777Z" fill="#44798E"/>
<path d="M118.227 394.751L123.385 391.773L118.244 388.777L118.227 394.751Z" fill="#6692AB"/>
<path d="M373.463 442.3C373.469 444.335 372.04 446.805 370.275 447.823C368.769 448.693 367.505 448.229 367.158 446.817C367.099 446.57 367.064 446.294 367.064 445.994C367.058 443.971 368.481 441.495 370.252 440.471C370.446 440.359 370.634 440.271 370.817 440.206C372.316 439.648 373.457 440.501 373.463 442.3Z" fill="#6692AB"/>
<path d="M370.911 441.03C370.917 443.059 369.488 445.535 367.723 446.552C367.529 446.664 367.341 446.752 367.158 446.817C367.099 446.57 367.064 446.294 367.064 445.994C367.058 443.971 368.481 441.495 370.252 440.471C370.446 440.359 370.634 440.271 370.817 440.206C370.876 440.454 370.911 440.73 370.911 441.03Z" fill="#44798E"/>
<path opacity="0.7" d="M31.2734 238.381L297.49 392.178L677.823 172.714L411.625 18.7676L31.2734 238.381Z" fill="#AFC5D2"/>
<path opacity="0.5" d="M297.49 392.178V403.064L677.866 183.454L677.823 172.714L297.49 392.178Z" fill="#6692AB"/>
<path opacity="0.8" d="M297.49 392.178V403.064L31.2734 249.364V238.381L297.49 392.178Z" fill="#44788D"/>
<path opacity="0.7" d="M608.634 196.958L548.007 231.922L547.367 232.282L547.357 232.292L478.937 271.772L477.838 272.412H477.827L409.737 311.702L408.287 312.542L341.028 351.336L271.377 311.023L338.187 272.449L340.047 271.369L407.437 232.459L409.226 231.429L476.677 192.479L478.267 191.569L539.003 156.494L608.634 196.958Z" fill="#D3E2EB"/>
<path opacity="0.5" d="M341.027 351.336V357.222L608.678 202.694L608.636 196.953L341.027 351.336Z" fill="#6692AB"/>
<path opacity="0.8" d="M341.028 351.336V357.222L271.373 317.007V311.023L341.028 351.336Z" fill="#44788D"/>
<path opacity="0.7" d="M546.386 232.823L476.676 192.479L407.436 232.46L477.194 272.783L546.386 232.823Z" fill="#FFF82B"/>
<path opacity="0.7" d="M409.826 311.752L408.286 312.542L407.906 312.732L338.186 272.449L340.046 271.369L409.736 311.702L409.826 311.752Z" fill="white"/>
<path opacity="0.7" d="M477.193 272.782V278.607L546.385 238.658V232.822L477.193 272.782Z" fill="#FFAE2B"/>
<path d="M494.704 222.279C495.473 222.723 495.845 223.399 495.444 224.09L492.072 229.918C491.751 230.467 491.919 231.072 492.52 231.536L498.899 236.468C500.414 237.636 498.959 239.303 496.446 239.284L485.818 239.203C484.819 239.199 483.872 239.476 483.302 239.948L477.195 244.976C476.047 245.918 473.814 245.93 472.556 245.204C472.224 245.012 471.96 244.769 471.802 244.479L468.619 238.607C468.468 238.329 468.205 238.082 467.861 237.883C467.516 237.684 467.089 237.533 466.608 237.446L456.454 235.618C455.951 235.527 455.531 235.375 455.2 235.184C453.943 234.459 453.961 233.168 455.584 232.5L464.244 228.947C465.05 228.612 465.531 228.066 465.521 227.487L465.346 221.331C465.306 219.875 468.171 219.023 470.194 219.897L478.736 223.579C479.54 223.925 480.584 224.021 481.531 223.833L491.575 221.857C492.767 221.622 493.934 221.835 494.704 222.279Z" fill="white"/>
<path d="M559.273 183.209C559.647 183.425 559.88 183.724 559.879 184.053L559.721 200.893C559.716 201.937 557.527 202.456 556.248 201.717C555.443 201.252 554.158 201.252 553.364 201.714L540.271 209.323C539.477 209.785 538.186 209.781 537.387 209.32L531.109 205.695C530.31 205.234 530.3 204.486 531.094 204.024L536.121 201.103C536.915 200.642 536.911 199.897 536.112 199.436L531.642 196.855C530.843 196.394 529.557 196.394 528.763 196.855L523.736 199.776C522.942 200.237 521.651 200.234 520.852 199.773L514.266 195.97C513.467 195.509 513.463 194.764 514.257 194.303L527.35 186.694C528.144 186.233 528.134 185.485 527.335 185.023C526.051 184.282 526.939 183.012 528.741 183.005L557.819 182.862C558.383 182.86 558.899 182.993 559.273 183.209Z" fill="white"/>
<path d="M433.659 274.759C434.218 275.082 434.31 275.64 433.661 276.017L418.72 284.7C418.065 285.081 417.108 285.016 416.554 284.696C416.264 284.528 416.084 284.291 416.117 284.01L417.285 274.753C417.342 274.27 418.074 273.903 418.907 273.937L432.69 274.506C433.087 274.523 433.417 274.619 433.659 274.759Z" fill="white"/>
<path d="M403.875 257.563C404.117 257.703 404.284 257.894 404.315 258.123L405.342 266.105C405.404 266.588 404.772 267.013 403.939 267.047L387.961 267.754C387.473 267.776 387.061 267.673 386.771 267.506C386.217 267.186 386.107 266.63 386.762 266.249L401.703 257.566C402.351 257.189 403.316 257.24 403.875 257.563Z" fill="white"/>
<path d="M432.89 271.15C433.895 271.73 433.117 272.713 431.708 272.656L410.513 271.783C410.131 271.769 409.788 271.674 409.534 271.527C409.28 271.381 409.115 271.182 409.089 270.961L407.512 258.687C407.408 257.871 409.102 257.417 410.107 257.997L432.89 271.15Z" fill="white"/>
<path d="M413.723 273.941C414.027 274.117 414.207 274.365 414.181 274.633L412.918 284.614C412.823 285.361 411.247 285.7 410.322 285.166L385.987 271.117C385.061 270.583 385.642 269.669 386.931 269.611L404.159 268.847C404.621 268.831 405.047 268.933 405.35 269.108C405.601 269.253 405.767 269.448 405.8 269.669L406.184 272.651C406.21 272.872 406.375 273.07 406.629 273.217C406.883 273.363 407.225 273.458 407.608 273.473L412.758 273.686C413.134 273.7 413.471 273.795 413.723 273.941Z" fill="white"/>
<path d="M351.058 320.76C351.535 321.802 350.491 322.869 348.683 323.148L344.884 323.737C343.686 323.924 342.457 323.71 341.63 323.232C341.223 322.997 340.914 322.699 340.753 322.353L340.515 321.857C340.364 321.521 340.063 321.227 339.658 320.993C339.159 320.705 338.503 320.509 337.776 320.437C336.758 320.332 335.772 320.183 334.796 319.978C333.552 319.718 332.15 319.873 331.21 320.418L330.591 320.778C329.278 321.541 327.147 321.547 325.825 320.784L323.031 319.171C321.709 318.408 321.713 317.173 323.026 316.41L323.645 316.05C324.584 315.504 324.858 314.698 324.394 313.972C324.048 313.414 323.777 312.837 323.602 312.254C323.476 311.833 323.134 311.453 322.633 311.164C322.227 310.929 321.715 310.755 321.129 310.665L320.271 310.529C319.677 310.439 319.164 310.262 318.758 310.028C317.933 309.552 317.557 308.839 317.869 308.14L318.874 305.938C319.361 304.896 321.189 304.282 323 304.561L323.847 304.691C325.133 304.889 326.481 304.617 327.324 304.027C327.655 303.798 328.007 303.58 328.37 303.369C328.733 303.158 329.107 302.953 329.491 302.767C330.516 302.271 330.983 301.489 330.636 300.745L330.408 300.255C329.909 299.213 330.974 298.146 332.772 297.86L336.571 297.271C337.776 297.088 339.008 297.304 339.833 297.78C340.238 298.014 340.545 298.311 340.703 298.655L340.931 299.157C341.09 299.491 341.393 299.783 341.797 300.016C342.3 300.307 342.96 300.505 343.692 300.577C344.699 300.676 345.696 300.831 346.661 301.03C347.916 301.297 349.307 301.135 350.236 300.596L350.866 300.23C352.179 299.467 354.3 299.467 355.621 300.23L358.415 301.843C359.737 302.606 359.744 303.834 358.431 304.597L357.801 304.963C356.872 305.503 356.609 306.316 357.063 307.035C357.42 307.6 357.68 308.17 357.865 308.76C357.992 309.183 358.337 309.565 358.839 309.855C359.241 310.087 359.744 310.26 360.316 310.348L361.184 310.478C361.777 310.572 362.292 310.751 362.699 310.986C363.526 311.464 363.905 312.172 363.586 312.867L362.581 315.069C362.105 316.117 360.255 316.732 358.465 316.452L357.618 316.322C356.321 316.117 354.973 316.39 354.12 316.986C353.8 317.209 353.459 317.433 353.095 317.644C352.732 317.855 352.348 318.053 351.953 318.246C350.938 318.736 350.471 319.518 350.829 320.268L351.058 320.76ZM335.219 313.712C339.465 316.163 347.381 315.21 348.72 310.853C348.804 310.63 348.792 310.388 348.727 310.164C348.336 308.943 347.434 307.989 346.244 307.302C341.993 304.848 334.074 305.801 332.727 310.164C332.664 310.387 332.655 310.629 332.742 310.853C333.13 312.073 334.031 313.026 335.219 313.712Z" fill="white"/>
<path opacity="0.7" d="M379.314 18.9146L470.019 71.3795L502.627 52.6756L411.941 0.0605469L379.314 18.9146Z" fill="#D3E2EB"/>
<path opacity="0.7" d="M379.314 18.9146L409.226 36.2805L441.834 17.5765L411.941 0.0605469L379.314 18.9146Z" fill="#26E42C"/>
<path d="M415.02 26.0855C416.099 26.7085 416.098 27.7145 415.026 28.3375C413.954 28.9605 412.217 28.9645 411.138 28.3415L393.018 17.8805C391.939 17.2575 391.933 16.2475 393.005 15.6245C394.077 15.0015 395.821 15.0015 396.9 15.6245L415.02 26.0855Z" fill="white"/>
<path d="M421.574 22.2769C422.653 22.8999 422.659 23.9029 421.587 24.5259C420.515 25.1489 418.778 25.1529 417.699 24.5299L399.579 14.0689C398.5 13.4459 398.494 12.4359 399.566 11.8129C400.638 11.1899 402.375 11.1939 403.454 11.8169L421.574 22.2769Z" fill="white"/>
<path d="M428.132 18.4654C429.211 19.0884 429.217 20.0914 428.145 20.7144C427.073 21.3374 425.336 21.3414 424.257 20.7184L406.137 10.2564C405.058 9.63341 405.052 8.62341 406.124 8.00041C407.196 7.37741 408.933 7.38141 410.012 8.00441L428.132 18.4654Z" fill="white"/>
<path d="M482.976 48.5513C482.966 46.7543 481.693 45.1243 479.648 43.9433C477.602 42.7623 474.784 42.0303 471.682 42.0303C465.466 42.0303 460.435 44.9543 460.455 48.5543C460.465 50.3513 461.734 51.9823 463.783 53.1653C465.24 54.0073 467.093 54.6183 469.16 54.9013C469.092 55.0403 469.055 55.1863 469.055 55.3373L469.094 62.3463C469.096 62.7773 469.402 63.1713 469.89 63.4533C470.378 63.7353 471.06 63.9113 471.804 63.9113C472.548 63.9113 473.217 63.7353 473.702 63.4533C474.193 63.1683 474.494 62.7803 474.491 62.3493L474.452 55.3343C474.451 55.1843 474.413 55.0383 474.343 54.9013C479.306 54.2213 482.993 51.6343 482.976 48.5513ZM473.656 54.2303C473.534 54.1593 473.4 54.0953 473.256 54.0393C473.399 54.0953 473.533 54.1593 473.656 54.2303C473.815 54.3223 473.955 54.4263 474.071 54.5383C473.954 54.4253 473.815 54.3223 473.656 54.2303ZM471.74 52.5863C469.82 52.5853 468.075 52.1323 466.81 51.4023C465.546 50.6723 464.761 49.6663 464.757 48.5553C464.74 46.3323 467.852 44.5233 471.695 44.5233C473.612 44.5233 475.355 44.9763 476.62 45.7063C477.88 46.4343 478.668 47.4423 478.679 48.5553C478.686 50.7783 475.574 52.5863 471.74 52.5863Z" fill="white"/>
<path opacity="0.8" d="M379.314 18.9814L470.019 71.3794V77.2654L379.314 24.9644V18.9814Z" fill="#44788D"/>
<path opacity="0.5" d="M469.963 71.3798V77.2658L502.612 58.4148L502.57 52.6748L469.963 71.3798Z" fill="#6692AB"/>
<path opacity="0.7" d="M409.226 36.2804V42.2124L379.314 24.9644V18.9814L409.226 36.2804Z" fill="#22CC27"/>
<path opacity="0.7" d="M202.67 180.893L323.381 250.682L355.989 231.977L235.297 162.039L202.67 180.893Z" fill="#D3E2EB"/>
<path opacity="0.7" d="M202.67 180.893L232.583 198.259L265.19 179.555L235.297 162.039L202.67 180.893Z" fill="#26A8E4"/>
<path opacity="0.8" d="M202.67 180.96L323.381 250.682V256.568L202.67 186.943V180.96Z" fill="#44788D"/>
<path opacity="0.5" d="M323.324 250.682V256.568L355.973 237.717L355.931 231.977L323.324 250.682Z" fill="#6692AB"/>
<path d="M238.868 180.798C240.408 183.039 239.627 185.682 236.513 187.492L221.26 178.686C224.375 176.876 228.941 176.419 232.809 177.3C232.852 178.192 233.455 179.077 234.63 179.755C235.805 180.433 237.334 180.779 238.868 180.798Z" fill="white"/>
<path d="M244.774 173.86C247.2 175.261 247.213 177.531 244.803 178.932C242.393 180.333 238.466 180.336 236.04 178.936C233.607 177.532 233.601 175.257 236.011 173.856C238.421 172.456 242.341 172.456 244.774 173.86Z" fill="white"/>
<path opacity="0.7" d="M202.67 180.96L232.583 198.259V204.191L202.67 186.943V180.96Z" fill="#26A8E4"/>
<path d="M276.537 195.946L266.35 201.866C265.468 202.378 264.413 202.636 263.191 202.629C261.963 202.618 260.918 202.36 260.043 201.855C259.162 201.346 258.719 200.738 258.715 200.03C258.711 199.322 259.147 198.714 260.016 198.209L270.203 192.289L272.157 193.417L261.989 199.326C261.672 199.51 261.52 199.731 261.522 199.989C261.53 200.251 261.69 200.468 262.009 200.653C262.328 200.837 262.704 200.929 263.15 200.929C263.596 200.929 263.97 200.837 264.288 200.653L274.456 194.744L276.537 195.946Z" fill="white"/>
<path d="M328.719 226.065L315.538 233.725L313.539 232.572L321.824 227.757L311.803 231.569L310.194 230.64L316.524 224.72L308.259 229.523L306.254 228.366L319.436 220.706L322.309 222.365L314.703 228.944L325.961 224.473L328.719 226.065Z" fill="white"/>
<path d="M336.194 230.382L334.196 231.543L330.506 229.412L326.916 231.499L329.616 233.058L327.618 234.219L324.918 232.66L321.321 234.75L325.011 236.881L323.013 238.042L317.324 234.758L330.506 227.097L336.194 230.382Z" fill="white"/>
<path d="M315.529 218.457L304.576 227.396L302.475 226.183L305.028 224.152L302.94 222.947L299.429 224.425L297.348 223.223L312.776 216.868L315.529 218.457ZM305.189 222.003L306.67 222.858L311.124 219.411L305.189 222.003Z" fill="white"/>
<path d="M308.855 214.598L295.674 222.258L293.529 221.019L299.22 214.524L290.777 219.43L288.779 218.277L301.96 210.617L304.207 211.914L298.002 218.59L306.857 213.444L308.855 214.598Z" fill="white"/>
<path d="M291.327 213.09L287.061 217.285L284.903 216.039L288.65 212.456L288.471 212.353L287.315 211.686L282.355 214.569L280.357 213.415L293.532 205.759L296.686 207.58C297.797 208.221 298.303 208.874 298.218 209.53C298.145 210.105 297.633 210.669 296.681 211.222L294.765 212.335C293.833 212.876 292.689 213.127 291.327 213.09ZM292.78 211.232L294.702 210.115C295.463 209.673 295.467 209.227 294.707 208.788L293.5 208.091L289.282 210.542L290.489 211.239C290.808 211.423 291.191 211.512 291.636 211.512C292.082 211.512 292.463 211.416 292.78 211.232Z" fill="white"/>
<path d="M292.16 204.958L290.162 206.119L286.472 203.989L282.882 206.075L285.582 207.635L283.584 208.796L280.884 207.236L277.287 209.326L280.977 211.457L278.979 212.618L273.291 209.334L286.472 201.674L292.16 204.958Z" fill="white"/>
<path d="M281.645 198.703C282.36 199.116 282.808 199.558 283.002 200.037C283.157 200.406 283.134 200.789 282.932 201.187C282.731 201.585 282.37 201.965 281.85 202.326L279.586 201.423C280.068 201.077 280.333 200.745 280.382 200.42C280.413 200.188 280.259 199.974 279.914 199.775C279.544 199.561 279.111 199.495 278.596 199.572C278.176 199.631 277.776 199.775 277.396 199.996C276.793 200.346 276.44 200.855 276.342 201.518C276.299 201.772 276.313 202.104 276.386 202.521C276.465 203.015 276.505 203.347 276.494 203.524C276.503 204.095 276.398 204.593 276.191 205.024C276.09 205.231 275.989 205.407 275.876 205.562C275.598 205.945 275.282 206.248 274.914 206.469C274.007 207.011 272.984 207.324 271.839 207.42C271.069 207.49 270.299 207.405 269.528 207.173C269.114 207.044 268.693 206.86 268.271 206.616C267.486 206.163 267.031 205.672 266.901 205.156C266.784 204.721 266.877 204.275 267.167 203.818C267.457 203.353 267.938 202.911 268.598 202.476L270.634 203.497C269.949 203.991 269.596 204.433 269.579 204.82C269.562 205.098 269.696 205.322 269.991 205.493C270.005 205.501 270.019 205.509 270.034 205.517C270.487 205.757 271.054 205.834 271.728 205.746C272.065 205.705 272.421 205.573 272.795 205.355C273.347 205.034 273.637 204.577 273.672 203.973C273.657 203.531 273.621 202.863 273.572 201.975C273.549 201.219 273.653 200.618 273.886 200.165C274.15 199.664 274.619 199.221 275.291 198.831C276.49 198.134 277.805 197.843 279.232 197.954C280.101 198.025 280.904 198.275 281.645 198.703Z" fill="white"/>
<path opacity="0.7" d="M162.268 216.097L282.979 285.886L315.587 267.182L194.895 197.244L162.268 216.097Z" fill="#D3E2EB"/>
<path opacity="0.7" d="M162.268 216.097L192.181 233.464L224.788 214.759L194.895 197.244L162.268 216.097Z" fill="#26E42C"/>
<path opacity="0.8" d="M162.268 216.165L282.979 285.886V291.773L162.268 222.148V216.165Z" fill="#44788D"/>
<path opacity="0.5" d="M282.922 285.887V291.774L315.571 272.922L315.529 267.182L282.922 285.887Z" fill="#6692AB"/>
<path opacity="0.7" d="M162.268 216.165L192.181 233.464V239.395L162.268 222.148V216.165Z" fill="#22CC27"/>
<path d="M204.999 216.207C205.511 216.503 205.51 216.982 205.005 217.275L196.288 222.341C195.779 222.637 194.952 222.639 194.44 222.343L181.47 214.855C180.958 214.559 180.955 214.078 181.464 213.782L190.181 208.716C190.686 208.422 191.516 208.422 192.029 208.718L192.912 209.228C196.014 207.701 200.695 207.785 203.636 209.483C206.582 211.184 206.738 213.892 204.111 215.694L204.999 216.207ZM195.242 210.573L201.787 214.352C203.152 213.294 203.006 211.781 201.339 210.818C199.673 209.856 197.06 209.777 195.242 210.573ZM190.732 216.986C191.623 217.501 193.063 217.501 193.949 216.986C194.305 216.779 194.515 216.517 194.58 216.248C194.641 216 194.872 215.774 195.27 215.668C195.44 215.622 195.606 215.555 195.746 215.473C196.41 215.087 196.408 214.46 195.738 214.073C195.502 213.937 195.183 213.83 194.782 213.775C194.62 213.753 194.446 213.753 194.28 213.777C193.641 213.864 193.21 214.085 192.996 214.345C192.819 214.564 192.45 214.72 192.035 214.749C191.126 214.814 190.277 215.197 190.019 215.911C189.986 216.002 189.983 216.101 190.021 216.195C190.143 216.53 190.399 216.794 190.732 216.986Z" fill="white"/>
<path d="M276.504 255.657C276.508 256.372 276.066 256.984 275.197 257.489L268.01 261.665C267.135 262.174 266.08 262.432 264.851 262.428C263.61 262.424 262.559 262.17 261.684 261.665C260.803 261.156 260.36 260.548 260.369 259.833C260.371 259.122 260.807 258.513 261.676 258.008L268.863 253.832C269.745 253.32 270.793 253.065 272.034 253.069C273.262 253.073 274.314 253.32 275.182 253.821C276.064 254.33 276.507 254.946 276.504 255.657ZM265.948 260.453L273.16 256.262C273.477 256.078 273.635 255.86 273.634 255.602C273.633 255.344 273.472 255.127 273.153 254.942C272.834 254.758 272.458 254.666 272.006 254.662C271.561 254.662 271.179 254.75 270.862 254.935L263.65 259.126C263.333 259.31 263.181 259.531 263.183 259.789C263.197 260.047 263.351 260.268 263.67 260.453C263.989 260.637 264.372 260.726 264.811 260.729C265.256 260.73 265.631 260.637 265.948 260.453Z" fill="white"/>
<path d="M292.831 265.268C292.829 265.979 292.393 266.588 291.53 267.089L284.648 271.089C283.779 271.594 282.73 271.848 281.496 271.856C280.261 271.856 279.216 271.605 278.348 271.104L275.207 269.29L288.388 261.63L291.529 263.444C292.403 263.949 292.84 264.561 292.831 265.268ZM282.656 269.99L289.551 265.983C289.868 265.799 290.026 265.574 290.031 265.319C290.03 265.061 289.876 264.84 289.563 264.659L288.363 263.966L279.172 269.307L280.372 270C280.691 270.184 281.074 270.273 281.519 270.265C281.97 270.263 282.352 270.167 282.656 269.99Z" fill="white"/>
<path d="M277.761 264.106L273.495 268.301L271.331 267.051L275.078 263.468L274.899 263.365L273.743 262.698L268.783 265.581L266.785 264.427L279.954 256.774L283.108 258.595C284.225 259.24 284.738 259.889 284.653 260.545C284.574 261.116 284.061 261.68 283.11 262.233L281.194 263.346C280.261 263.889 279.117 264.139 277.761 264.106ZM279.201 262.248L281.129 261.127C281.89 260.685 281.894 260.246 281.128 259.804L279.921 259.107L275.709 261.555L276.916 262.252C277.235 262.436 277.611 262.528 278.063 262.525C278.509 262.525 278.891 262.429 279.201 262.248Z" fill="white"/>
<path d="M270.473 251.301L255.236 257.76L253.327 256.658L259.435 251.792L251.124 255.386L249.209 254.28L260.162 245.348L262.256 246.557L256.25 251.261L264.267 247.718L266.361 248.927L260.361 253.627L268.379 250.092L270.473 251.301Z" fill="white"/>
<path d="M255.927 242.704C256.642 243.117 257.09 243.559 257.284 244.038C257.432 244.41 257.409 244.794 257.214 245.188C257.013 245.586 256.652 245.966 256.126 246.331L253.868 245.424C254.35 245.078 254.615 244.746 254.658 244.425C254.695 244.189 254.541 243.975 254.196 243.776C253.826 243.562 253.38 243.496 252.878 243.573C252.458 243.632 252.058 243.776 251.671 244.001C251.068 244.351 250.715 244.86 250.617 245.523C250.58 245.774 250.588 246.109 250.667 246.522C250.746 247.016 250.78 247.351 250.774 247.525C250.783 248.096 250.672 248.598 250.464 249.029C250.37 249.232 250.263 249.412 250.155 249.563C249.877 249.946 249.554 250.252 249.193 250.47C248.286 251.012 247.257 251.329 246.112 251.425C245.349 251.491 244.578 251.407 243.8 251.171C243.386 251.049 242.971 250.861 242.543 250.614C241.764 250.164 241.303 249.678 241.179 249.158C241.062 248.723 241.149 248.281 241.445 247.82C241.735 247.356 242.21 246.917 242.869 246.482L244.911 247.499C244.227 247.993 243.873 248.435 243.849 248.826C243.832 249.103 243.971 249.324 244.266 249.494C244.281 249.503 244.296 249.511 244.311 249.519C244.758 249.762 245.325 249.84 245.999 249.751C246.336 249.71 246.692 249.578 247.072 249.356C247.618 249.039 247.914 248.578 247.949 247.974C247.934 247.532 247.898 246.864 247.849 245.976C247.819 245.224 247.931 244.619 248.157 244.17C248.428 243.665 248.896 243.223 249.562 242.836C250.761 242.139 252.076 241.848 253.509 241.955C254.377 242.03 255.186 242.277 255.927 242.704Z" fill="white"/>
<path d="M247.941 238.094C248.656 238.507 249.104 238.949 249.298 239.428C249.447 239.8 249.423 240.184 249.228 240.578C249.027 240.976 248.666 241.356 248.14 241.721L245.882 240.814C246.364 240.467 246.623 240.132 246.672 239.815C246.709 239.579 246.555 239.365 246.204 239.163C245.84 238.953 245.394 238.887 244.892 238.964C244.472 239.023 244.072 239.167 243.685 239.392C243.082 239.742 242.729 240.251 242.631 240.914C242.594 241.165 242.602 241.5 242.681 241.913C242.76 242.407 242.794 242.742 242.789 242.916C242.792 243.484 242.687 243.989 242.479 244.42C242.385 244.623 242.278 244.803 242.17 244.955C241.892 245.338 241.563 245.641 241.201 245.858C240.3 246.404 239.271 246.721 238.126 246.816C237.363 246.882 236.592 246.798 235.814 246.562C235.4 246.44 234.985 246.252 234.557 246.005C233.778 245.555 233.317 245.069 233.187 244.545C233.076 244.114 233.163 243.671 233.459 243.211C233.749 242.746 234.218 242.304 234.883 241.873L236.925 242.89C236.24 243.384 235.887 243.826 235.863 244.217C235.846 244.494 235.985 244.715 236.274 244.882C236.288 244.89 236.303 244.899 236.318 244.907C236.771 245.154 237.338 245.231 238.006 245.139C238.343 245.098 238.705 244.969 239.086 244.748C239.632 244.431 239.928 243.97 239.963 243.366C239.941 242.92 239.912 242.256 239.863 241.368C239.833 240.616 239.944 240.011 240.165 239.558C240.442 239.057 240.911 238.614 241.577 238.227C242.776 237.53 244.085 237.235 245.518 237.342C246.39 237.419 247.2 237.666 247.941 238.094Z" fill="white"/>
<path d="M241.18 234.389L230.233 243.324L228.126 242.108L230.686 240.081L228.598 238.876L225.087 240.354L223.006 239.152L238.428 232.801L241.18 234.389ZM230.846 237.932L232.327 238.787L236.775 235.344L230.846 237.932Z" fill="white"/>
<path d="M234.137 231.381C234.09 232.03 233.616 232.616 232.715 233.139L230.799 234.252C229.93 234.757 228.881 235.011 227.66 235.019C226.425 235.026 225.387 234.779 224.518 234.278L223.362 233.611L218.402 236.494L216.404 235.34L229.572 227.687L232.726 229.508C233.697 230.069 234.171 230.696 234.137 231.381ZM228.82 233.162L230.748 232.041C231.09 231.842 231.261 231.624 231.266 231.378C231.265 231.135 231.092 230.917 230.747 230.718L229.54 230.021L225.328 232.469L226.535 233.166C226.854 233.35 227.23 233.442 227.682 233.439C228.122 233.435 228.509 233.342 228.82 233.162Z" fill="white"/>
<path opacity="0.5" d="M370.504 216.462V222.349L515.361 138.715L515.318 132.975L370.504 216.462Z" fill="#6692AB"/>
<path opacity="0.7" d="M370.503 216.462V222.349L213.066 131.452V125.469L370.503 216.462Z" fill="#C42121"/>
<path opacity="0.7" d="M357.703 41.9629L515.317 132.975L370.503 216.462L213.066 125.469L357.703 41.9629Z" fill="#E3F3FC"/>
<path opacity="0.7" d="M238.066 111.036L395.68 202.048L370.503 216.462L213.066 125.469L238.066 111.036Z" fill="#E42626"/>
<path d="M249.284 133.293C250.526 133.533 251.824 133.356 252.743 132.821C253.656 132.283 253.958 131.538 253.534 130.823L247.294 120.078C247.121 119.78 246.839 119.521 246.475 119.311C246.041 119.06 245.486 118.88 244.862 118.791C243.716 118.636 242.539 118.832 241.708 119.314L229.377 126.48C228.546 126.963 228.213 127.645 228.49 128.305C228.638 128.667 228.954 128.988 229.391 129.241C229.756 129.452 230.205 129.615 230.712 129.714L249.284 133.293Z" fill="#CEDBE4"/>
<path d="M246.474 119.312C246.838 119.522 247.119 119.78 247.293 120.079L253.533 130.824C253.957 131.539 253.656 132.284 252.742 132.822C251.822 133.357 250.525 133.533 249.283 133.294L230.712 129.715C230.205 129.616 229.756 129.453 229.391 129.243C228.953 128.99 228.638 128.669 228.49 128.307C228.213 127.647 228.546 126.965 229.377 126.482L241.708 119.316C242.539 118.833 243.715 118.638 244.862 118.793C245.485 118.88 246.04 119.061 246.474 119.312Z" fill="white"/>
<path d="M340.797 175.596C341.539 176.025 341.627 176.759 340.809 177.235L329.423 183.852C328.603 184.328 327.329 184.281 326.585 183.852C326.362 183.723 326.186 183.56 326.085 183.366L324.232 179.798L319.597 177.114C318.818 176.664 318.814 175.927 319.588 175.477L326.324 171.562C327.104 171.109 328.371 171.112 329.15 171.562L333.434 174.035C333.67 174.171 333.957 174.271 334.276 174.323L339.952 175.307C340.289 175.365 340.573 175.467 340.797 175.596Z" fill="white"/>
<path d="M349.506 178.834C349.549 178.859 349.586 178.889 349.613 178.923C351.984 181.798 350.985 185.234 347.122 187.479C343.265 189.72 337.331 190.314 332.366 188.946L332.213 188.887C332.047 188.791 331.995 188.644 332.103 188.522C332.229 188.36 332.566 188.29 332.84 188.367C337.378 189.613 342.803 189.071 346.33 187.021C349.863 184.968 350.775 181.827 348.615 179.199C348.48 179.04 348.594 178.849 348.874 178.775C349.09 178.714 349.345 178.74 349.506 178.834Z" fill="white"/>
<path d="M341.32 180.162C341.365 180.188 341.402 180.219 341.431 180.254C342.36 181.386 341.973 182.742 340.451 183.627C338.929 184.512 336.588 184.74 334.638 184.202L334.478 184.139C334.318 184.047 334.267 183.899 334.368 183.774C334.501 183.616 334.831 183.549 335.112 183.623C336.642 184.043 338.473 183.859 339.66 183.17C340.853 182.477 341.165 181.415 340.434 180.531C340.3 180.372 340.419 180.177 340.693 180.1C340.91 180.041 341.16 180.069 341.32 180.162Z" fill="white"/>
<path d="M345.245 180.19C345.288 180.215 345.324 180.243 345.352 180.276C346.813 182.053 346.188 184.176 343.804 185.562C341.419 186.948 337.762 187.313 334.69 186.472L334.53 186.409C334.37 186.317 334.319 186.169 334.426 186.04C334.559 185.882 334.883 185.812 335.157 185.889C337.808 186.612 340.963 186.302 343.018 185.108C345.073 183.914 345.604 182.082 344.341 180.552C344.213 180.39 344.333 180.202 344.606 180.124C344.823 180.063 345.081 180.095 345.245 180.19Z" fill="white"/>
<path d="M380.085 200.496C380.474 200.721 380.483 201.086 380.09 201.314L371.831 206.113C371.444 206.338 370.808 206.338 370.418 206.113L350.989 194.896C350.6 194.671 350.597 194.303 350.984 194.078L359.243 189.279C359.636 189.051 360.266 189.054 360.656 189.279L380.085 200.496ZM371.123 204.883L377.967 200.905L363.214 192.388L356.37 196.365L371.123 204.883Z" fill="white"/>
<path d="M271.777 135.964C272.754 136.528 272.759 137.442 271.788 138.006L261.772 143.827C260.802 144.391 259.217 144.395 258.24 143.831C257.257 143.263 257.258 142.345 258.228 141.782L268.244 135.961C269.216 135.396 270.794 135.396 271.777 135.964Z" fill="white"/>
<path d="M279.036 140.155C280.013 140.719 280.024 141.637 279.054 142.201L269.038 148.022C268.068 148.586 266.477 148.586 265.5 148.022C264.523 147.458 264.518 146.536 265.488 145.973L275.504 140.152C276.475 139.587 278.06 139.591 279.036 140.155Z" fill="white"/>
<path opacity="0.7" d="M358.13 47.7051L505.372 132.728L395.982 195.77L248.906 110.765L358.13 47.7051Z" fill="#44788D"/>
<path d="M396.599 110.425C407.423 116.674 407.48 126.802 396.734 133.047C385.98 139.296 368.495 139.296 357.672 133.047C346.856 126.802 346.799 116.674 357.552 110.425C368.297 104.18 385.782 104.18 396.599 110.425ZM383.278 128.422C386.652 129.073 389.841 127.22 388.699 125.272L381.764 113.338C381.541 112.952 381.18 112.625 380.728 112.364C379.129 111.441 376.398 111.346 374.646 112.364L360.956 120.32C359.198 121.342 359.37 122.924 360.97 123.848C361.421 124.109 361.986 124.317 362.654 124.445L383.278 128.422Z" fill="white"/>
<path opacity="0.7" d="M395.681 202.048V207.813L370.504 222.349V216.462L395.681 202.048Z" fill="#E42626"/>
<path opacity="0.7" d="M476.812 91.1636L629.628 179.489L662.236 160.785L509.438 72.3105L476.812 91.1636Z" fill="#D3E2EB"/>
<path opacity="0.7" d="M476.66 91.0766L514.036 112.698L546.644 93.9936L509.287 72.2236L476.66 91.0766Z" fill="#26A8E4"/>
<path opacity="0.7" d="M592.668 158.053L593.766 158.783L626.374 140.079L625.295 139.2L592.668 158.053Z" fill="white"/>
<path opacity="0.7" d="M552.791 135.031L553.889 135.762L586.497 117.057L585.418 116.178L552.791 135.031Z" fill="white"/>
<path d="M551.03 115.019C552.57 117.26 551.789 119.903 548.675 121.713L533.422 112.907C536.536 111.097 541.103 110.64 544.971 111.521C545.014 112.413 545.617 113.298 546.792 113.976C547.967 114.654 549.496 115.001 551.03 115.019Z" fill="white"/>
<path d="M556.936 108.083C559.362 109.484 559.375 111.754 556.965 113.155C554.555 114.556 550.628 114.559 548.202 113.159C545.769 111.755 545.763 109.48 548.173 108.079C550.583 106.678 554.503 106.678 556.936 108.083Z" fill="white"/>
<path d="M605.25 137.099C605.609 137.306 605.667 137.664 605.251 137.906L595.667 143.476C595.247 143.72 594.633 143.679 594.278 143.474C594.092 143.366 593.976 143.214 593.997 143.034L594.746 137.095C594.782 136.785 595.252 136.549 595.787 136.572L604.628 136.937C604.883 136.948 605.095 137.009 605.25 137.099Z" fill="white"/>
<path d="M586.143 126.068C586.299 126.158 586.405 126.28 586.425 126.427L587.084 131.547C587.124 131.857 586.718 132.129 586.184 132.151L575.934 132.604C575.621 132.618 575.357 132.552 575.171 132.445C574.816 132.24 574.745 131.883 575.165 131.639L584.749 126.069C585.166 125.828 585.784 125.861 586.143 126.068Z" fill="white"/>
<path d="M604.756 134.784C605.401 135.156 604.902 135.787 603.998 135.75L590.403 135.19C590.158 135.181 589.937 135.12 589.774 135.026C589.611 134.932 589.507 134.805 589.49 134.663L588.477 126.789C588.411 126.266 589.498 125.974 590.143 126.347L604.756 134.784Z" fill="white"/>
<path d="M592.46 136.574C592.655 136.687 592.77 136.846 592.754 137.018L591.944 143.421C591.883 143.9 590.873 144.118 590.279 143.775L574.668 134.762C574.074 134.419 574.446 133.833 575.274 133.796L586.325 133.306C586.621 133.296 586.895 133.361 587.089 133.473C587.25 133.566 587.357 133.691 587.378 133.833L587.624 135.746C587.641 135.888 587.746 136.015 587.909 136.109C588.072 136.203 588.292 136.264 588.537 136.273L591.841 136.409C592.083 136.42 592.299 136.481 592.46 136.574Z" fill="white"/>
<path d="M632.186 164.554C632.454 165.14 631.867 165.741 630.849 165.898L628.711 166.23C628.037 166.335 627.345 166.215 626.88 165.946C626.651 165.814 626.477 165.646 626.387 165.452L626.253 165.173C626.168 164.984 625.999 164.818 625.771 164.687C625.49 164.525 625.121 164.414 624.712 164.374C624.139 164.315 623.584 164.231 623.035 164.116C622.335 163.969 621.546 164.057 621.017 164.364L620.669 164.567C619.93 164.996 618.731 165 617.987 164.571L616.415 163.663C615.671 163.234 615.673 162.539 616.412 162.109L616.76 161.907C617.289 161.6 617.443 161.146 617.181 160.737C616.986 160.423 616.834 160.098 616.736 159.77C616.665 159.533 616.473 159.319 616.191 159.157C615.962 159.025 615.675 158.927 615.345 158.876L614.862 158.799C614.528 158.748 614.239 158.649 614.011 158.517C613.547 158.249 613.335 157.848 613.511 157.455L614.077 156.216C614.351 155.629 615.38 155.284 616.399 155.441L616.876 155.514C617.6 155.626 618.358 155.472 618.833 155.14C619.019 155.011 619.217 154.889 619.422 154.77C619.626 154.651 619.837 154.536 620.053 154.431C620.63 154.152 620.893 153.712 620.698 153.293L620.57 153.017C620.289 152.431 620.889 151.83 621.901 151.669L624.039 151.337C624.717 151.234 625.41 151.355 625.875 151.623C626.103 151.755 626.276 151.922 626.365 152.115L626.493 152.398C626.582 152.586 626.753 152.751 626.98 152.882C627.263 153.046 627.635 153.157 628.046 153.198C628.613 153.254 629.174 153.341 629.717 153.453C630.423 153.603 631.206 153.512 631.729 153.209L632.083 153.003C632.822 152.573 634.015 152.574 634.759 153.003L636.331 153.911C637.075 154.34 637.079 155.032 636.34 155.461L635.986 155.667C635.463 155.971 635.315 156.428 635.571 156.833C635.772 157.151 635.918 157.472 636.022 157.804C636.094 158.042 636.288 158.257 636.57 158.42C636.796 158.551 637.079 158.648 637.401 158.698L637.89 158.771C638.224 158.824 638.514 158.925 638.743 159.057C639.208 159.326 639.422 159.725 639.242 160.115L638.676 161.354C638.408 161.944 637.367 162.29 636.36 162.133L635.883 162.06C635.153 161.945 634.395 162.098 633.914 162.434C633.734 162.56 633.542 162.685 633.337 162.804C633.133 162.923 632.916 163.034 632.694 163.143C632.123 163.419 631.86 163.859 632.061 164.281L632.186 164.554ZM623.272 160.587C625.661 161.966 630.117 161.43 630.87 158.978C630.917 158.852 630.911 158.716 630.874 158.591C630.654 157.904 630.146 157.367 629.476 156.98C627.083 155.599 622.627 156.135 621.869 158.591C621.833 158.717 621.828 158.853 621.877 158.979C622.096 159.665 622.603 160.201 623.272 160.587Z" fill="white"/>
<path opacity="0.5" d="M629.629 179.488V185.375L662.278 166.524L662.236 160.783L629.629 179.488Z" fill="#6692AB"/>
<path opacity="0.8" d="M476.812 91.1504L629.628 179.488V185.375L476.812 97.1334V91.1504Z" fill="#44788D"/>
<path opacity="0.7" d="M476.66 97.0483V91.0293L514.057 112.661V118.643L476.66 97.0483Z" fill="#26A8E4"/>
<path d="M519.719 86.3591C520.9 87.0411 520.899 88.1441 519.733 88.8211L514.68 91.7571L519.766 94.6931C520.94 95.3711 520.954 96.4731 519.78 97.1561C518.614 97.8341 516.71 97.8291 515.536 97.1521L510.45 94.2161L505.397 97.1521C504.223 97.8341 502.327 97.8341 501.146 97.1521C499.972 96.4741 499.958 95.3711 501.132 94.6901L506.185 91.7531L501.099 88.8171C499.925 88.1391 499.919 87.0411 501.085 86.3631C502.259 85.6811 504.155 85.6811 505.329 86.3591L510.415 89.2951L515.468 86.3591C516.634 85.6811 518.545 85.6811 519.719 86.3591Z" fill="white"/>
<path opacity="0.7" d="M145.963 150.029L175.876 167.395L208.484 148.691L178.59 131.175L145.963 150.029Z" fill="#E42685"/>
<path opacity="0.7" d="M145.963 150.096L175.876 167.395V173.327L145.963 156.08V150.096Z" fill="#B81E6B"/>
<path opacity="0.7" d="M175.875 173.326L208.172 154.679L208.483 148.69L175.875 167.394V173.326Z" fill="#D9247E"/>
<path d="M187.945 147.499C188.006 147.534 188.065 147.57 188.124 147.607C190.347 149.008 189.977 151.205 187.54 152.458C185.636 153.438 183.151 153.951 180.592 153.885L169.301 153.605L168.781 147.066C168.658 145.584 169.534 144.143 171.221 143.037C173.377 141.622 177.168 141.4 179.588 142.679C179.652 142.713 179.714 142.747 179.775 142.782C182.035 144.087 182.042 146.201 179.8 147.504C182.042 146.201 185.692 146.198 187.945 147.499Z" fill="white"/>
<path opacity="0.7" d="M106.545 185.871L136.457 203.237L169.065 184.533L139.171 167.017L106.545 185.871Z" fill="#6526E4"/>
<path opacity="0.7" d="M106.545 185.938L136.457 203.237V209.168L106.545 191.921V185.938Z" fill="#4B1CAB"/>
<path opacity="0.7" d="M136.457 209.168L168.754 190.521L169.065 184.532L136.457 203.236V209.168Z" fill="#5A22CC"/>
<path d="M149.475 186.228C149.448 186.425 149.302 186.612 149.063 186.751L137.688 193.361C137.123 193.689 136.202 193.689 135.638 193.364L123.176 186.169C122.608 185.841 122.609 185.31 123.174 184.981L139.141 175.702C139.706 175.374 140.618 175.374 141.187 175.702L149.738 180.639C150.043 180.815 150.196 181.058 150.161 181.303L149.475 186.228ZM140.42 188.422C140.707 188.587 141.167 188.587 141.447 188.425C141.732 188.26 141.726 187.995 141.439 187.83L132.116 182.447C131.829 182.282 131.378 182.282 131.093 182.447C130.813 182.61 130.81 182.874 131.096 183.039L140.42 188.422ZM143.736 186.495C144.023 186.66 144.483 186.66 144.763 186.498C145.048 186.333 145.042 186.068 144.755 185.903L135.432 180.52C135.145 180.355 134.694 180.355 134.409 180.52C134.129 180.683 134.126 180.947 134.412 181.112L143.736 186.495ZM137.104 190.349C137.391 190.514 137.847 190.517 138.131 190.352C138.411 190.189 138.41 189.922 138.123 189.757L128.8 184.374C128.513 184.209 128.057 184.211 127.777 184.374C127.492 184.539 127.494 184.801 127.78 184.966L137.104 190.349ZM137.829 178.206C137.544 178.371 137.55 178.636 137.832 178.798L143.869 182.283C144.151 182.446 144.607 182.448 144.892 182.283C145.172 182.12 145.171 181.853 144.889 181.691L138.852 178.206C138.569 178.044 138.109 178.044 137.829 178.206Z" fill="white"/>
<path opacity="0.7" d="M62.8242 228.125L218.493 318.097L251.1 299.393L95.4512 209.272L62.8242 228.125Z" fill="#D3E2EB"/>
<path opacity="0.8" d="M62.8242 228.193L218.493 318.097V324.029L62.8242 234.176V228.193Z" fill="#44788D"/>
<path opacity="0.5" d="M218.494 324.03L250.791 305.383L251.101 299.394L218.494 318.098V324.03Z" fill="#6692AB"/>
<path opacity="0.7" d="M62.8242 228.125L122.956 262.939L155.564 244.235L95.4512 209.272L62.8242 228.125Z" fill="#FFF82B"/>
<path opacity="0.7" d="M153.498 280.475L154.162 280.955L186.769 262.251L186.124 261.622L153.498 280.475Z" fill="white"/>
<path opacity="0.7" d="M184.701 298.492L185.365 298.972L217.973 280.267L217.328 279.639L184.701 298.492Z" fill="white"/>
<path opacity="0.7" d="M122.956 262.939V268.885L62.8242 234.176V228.125L122.956 262.939Z" fill="#FFAE2B"/>
<path d="M227.493 303.789C225.016 305.229 221.767 305.954 218.505 305.977L217.783 305.975C217.644 305.973 217.509 305.958 217.365 305.953C217.221 305.948 217.078 305.938 216.93 305.931C216.656 305.914 216.385 305.889 216.115 305.86C215.988 305.85 215.862 305.836 215.735 305.821C215.456 305.787 215.178 305.748 214.907 305.704C214.785 305.687 214.662 305.665 214.544 305.645C214.274 305.596 214.008 305.54 213.741 305.484C213.619 305.457 213.496 305.43 213.369 305.401C213.12 305.34 212.875 305.272 212.629 305.203C212.498 305.166 212.367 305.13 212.236 305.088C212.004 305.017 211.779 304.937 211.555 304.856C211.424 304.81 211.289 304.766 211.162 304.717C210.929 304.627 210.709 304.529 210.485 304.429C210.375 304.38 210.257 304.336 210.151 304.285C209.821 304.129 209.504 303.965 209.203 303.791C208.902 303.618 208.619 303.434 208.352 303.246C208.259 303.182 208.187 303.116 208.098 303.051C207.929 302.924 207.755 302.794 207.602 302.662C207.513 302.586 207.441 302.511 207.36 302.435C207.22 302.306 207.08 302.176 206.953 302.039C206.885 301.966 206.821 301.89 206.753 301.812C206.634 301.67 206.519 301.531 206.413 301.387C206.362 301.314 206.315 301.243 206.264 301.17C206.166 301.016 206.072 300.864 205.987 300.708C205.949 300.637 205.915 300.569 205.885 300.498C205.804 300.339 205.735 300.178 205.675 300.017C205.649 299.944 205.628 299.873 205.606 299.797C205.559 299.643 205.516 299.487 205.481 299.325C205.468 299.239 205.455 299.159 205.442 299.073C205.437 298.992 205.412 298.914 205.403 298.831L205.371 298.413C205.424 296.524 206.67 294.642 209.148 293.202C211.533 291.816 214.773 291.041 218.136 291.019L218.853 291.014C221.685 291.085 224.372 291.686 226.538 292.727C226.847 292.876 227.147 293.03 227.435 293.196C229.738 294.525 231.085 296.288 231.231 298.16L231.267 298.576C231.209 300.522 229.878 302.404 227.493 303.789ZM218.231 291.782C215.408 291.789 212.686 292.395 210.582 293.486L213.761 295.321C215.322 294.463 217.035 293.757 218.741 293.256C218.486 292.776 218.319 292.285 218.231 291.782ZM226.995 302.961C228.866 301.737 229.903 300.158 229.911 298.525C229.041 298.476 228.189 298.378 227.365 298.234C226.506 299.224 225.287 300.216 223.812 301.123L226.995 302.961ZM218.417 305.209C221.16 305.204 223.891 304.627 226.062 303.503L222.883 301.668C221.272 302.555 219.575 303.252 217.911 303.738C218.162 304.215 218.33 304.706 218.417 305.209ZM206.729 298.461C207.594 298.507 208.443 298.603 209.267 298.747C210.106 297.784 211.303 296.799 212.829 295.863L209.646 294.025C207.711 295.287 206.728 296.873 206.729 298.461ZM218.317 297.951L221.526 296.086C220.543 295.46 219.759 294.749 219.193 293.984C217.664 294.441 216.123 295.086 214.701 295.863L218.317 297.951ZM222.465 296.628L219.256 298.493L222.871 300.58C224.212 299.756 225.317 298.859 226.105 297.975C224.784 297.65 223.553 297.198 222.465 296.628ZM214.178 300.356L217.383 298.494L213.768 296.407C212.41 297.245 211.318 298.14 210.546 299.015C211.869 299.334 213.095 299.788 214.178 300.356ZM218.323 299.036L215.118 300.898C216.101 301.524 216.889 302.232 217.451 303C218.955 302.548 220.496 301.912 221.938 301.123L218.323 299.036ZM209.733 302.939L213.245 300.898C212.272 300.394 211.168 299.996 209.985 299.708C209.076 301.006 208.931 302.184 209.733 302.939ZM210.673 303.481C211.98 303.943 214.017 303.857 216.25 303.325C215.748 302.641 215.057 302.003 214.184 301.441L210.673 303.481ZM222.459 295.543L225.967 293.505C224.969 293.153 223.526 293.104 221.802 293.375C221.342 293.446 220.87 293.548 220.394 293.659C220.896 294.343 221.587 294.981 222.459 295.543ZM226.907 294.047L223.399 296.085C224.372 296.588 225.476 296.987 226.659 297.275C226.852 297.001 227.019 296.728 227.144 296.464C227.611 295.462 227.518 294.624 226.907 294.047ZM219.725 291.826L219.556 291.816C219.63 292.2 219.763 292.574 219.946 292.938C220.452 292.816 220.953 292.711 221.446 292.635C222.108 292.53 222.736 292.469 223.335 292.444C223.263 292.427 223.196 292.402 223.12 292.383C222.985 292.349 222.85 292.315 222.71 292.283C222.533 292.239 222.355 292.2 222.169 292.161C222.03 292.134 221.886 292.105 221.742 292.08C221.556 292.046 221.37 292.016 221.185 291.987C221.041 291.967 220.894 291.945 220.746 291.928C220.556 291.901 220.366 291.884 220.172 291.864C220.025 291.852 219.877 291.835 219.725 291.826ZM228.853 295.692C228.823 295.65 228.781 295.611 228.747 295.567C228.707 295.914 228.608 296.281 228.428 296.664C228.295 296.948 228.115 297.238 227.91 297.534C228.539 297.639 229.181 297.712 229.844 297.754L229.827 297.656C229.81 297.568 229.784 297.485 229.758 297.402C229.728 297.287 229.693 297.175 229.646 297.065C229.616 296.979 229.582 296.896 229.548 296.813C229.492 296.703 229.441 296.596 229.382 296.488C229.339 296.405 229.292 296.324 229.241 296.241C229.177 296.136 229.105 296.031 229.032 295.926C228.972 295.848 228.912 295.77 228.853 295.692ZM207.668 301.123C207.736 301.221 207.817 301.316 207.897 301.411C207.965 300.798 208.244 300.135 208.721 299.446C208.096 299.343 207.454 299.27 206.8 299.229C206.878 299.625 207.011 300.018 207.208 300.405L207.225 300.434C207.323 300.617 207.434 300.798 207.557 300.982C207.591 301.03 207.629 301.077 207.668 301.123ZM215.061 304.938C215.724 305.048 216.404 305.124 217.088 305.168C217.014 304.789 216.886 304.418 216.706 304.056C215.522 304.337 214.375 304.498 213.321 304.542C213.482 304.586 213.646 304.632 213.82 304.674C213.9 304.696 213.981 304.718 214.065 304.738C214.378 304.806 214.694 304.872 215.011 304.929L215.061 304.938Z" fill="white"/>
<path d="M149.325 264.947C150.468 265.607 150.474 266.683 149.338 267.343C148.203 268.003 146.344 268.003 145.201 267.343C144.052 266.679 144.052 265.607 145.187 264.947C146.324 264.287 148.176 264.283 149.325 264.947Z" fill="white"/>
<path d="M165.64 255.466C166.617 256.03 166.628 256.948 165.652 257.516L155.642 263.333C154.665 263.901 153.081 263.897 152.104 263.333C151.121 262.765 151.116 261.851 152.093 261.283L162.102 255.466C163.078 254.898 164.656 254.898 165.64 255.466Z" fill="white"/>
<path d="M124.97 235.078C126.541 235.985 126.549 237.452 124.989 238.359L114.802 244.279C113.242 245.186 110.709 245.186 109.138 244.279L106.399 242.698L103.38 244.453C103.061 244.638 102.58 244.612 102.301 244.451C102.175 244.378 102.09 244.278 102.08 244.158L101.732 240.004L91.9765 234.371C90.4055 233.464 90.3975 231.997 91.9585 231.09L102.145 225.17C103.705 224.263 106.238 224.263 107.809 225.17L124.97 235.078ZM107.154 235.491C107.869 235.904 109.034 235.908 109.744 235.495C110.461 235.078 110.451 234.404 109.736 233.991C109.015 233.574 107.856 233.574 107.14 233.991C106.429 234.404 106.432 235.075 107.154 235.491ZM101.957 232.491C102.678 232.908 103.837 232.908 104.547 232.495C105.264 232.078 105.26 231.408 104.539 230.991C103.824 230.578 102.659 230.574 101.943 230.991C101.231 231.403 101.242 232.078 101.957 232.491ZM112.351 238.492C113.066 238.905 114.224 238.905 114.935 238.492C115.652 238.076 115.648 237.405 114.933 236.992C114.212 236.575 113.053 236.575 112.337 236.992C111.626 237.404 111.63 238.075 112.351 238.492Z" fill="white"/>
<path d="M193.503 282.735C194.485 283.302 194.497 284.225 193.521 284.793L189.63 287.055C188.654 287.622 187.054 287.622 186.071 287.055C185.082 286.484 185.083 285.561 186.06 284.994L189.951 282.732C190.927 282.164 192.514 282.164 193.503 282.735Z" fill="white"/>
<path d="M191.672 277.17C192.654 277.737 192.66 278.664 191.684 279.231L183.907 283.75C182.931 284.317 181.331 284.317 180.348 283.75C179.366 283.183 179.36 282.256 180.336 281.689L188.113 277.17C189.09 276.603 190.69 276.603 191.672 277.17Z" fill="white"/>
<path d="M190.499 271.224C191.488 271.795 191.493 272.714 190.517 273.282L178.186 280.448C177.21 281.015 175.616 281.019 174.627 280.448C173.644 279.881 173.639 278.954 174.615 278.387L186.946 271.221C187.923 270.654 189.517 270.657 190.499 271.224Z" fill="white"/>
</svg>
