<svg width="423" height="465" viewBox="0 0 423 465" fill="none" xmlns="http://www.w3.org/2000/svg">
<path opacity="0.2" d="M88.1035 460.001C130.351 460.001 164.6 456.967 164.6 453.225C164.6 449.483 130.351 446.449 88.1035 446.449C45.8559 446.449 11.6074 449.483 11.6074 453.225C11.6074 456.967 45.8559 460.001 88.1035 460.001Z" fill="#383838"/>
<path d="M44.7726 438.422C44.7726 438.422 41.274 452.967 42.148 453.526C43.0229 454.086 84.3112 454.645 85.8852 453.526C87.46 452.407 86.0943 445.321 63.9466 438.422C63.9466 438.422 50.8959 433.946 44.7726 438.422Z" fill="#F4CA60"/>
<mask id="mask0_3546_7610" style="mask-type:luminance" maskUnits="userSpaceOnUse" x="42" y="436" width="45" height="19">
<path d="M44.7687 438.421C44.7687 438.421 41.2701 452.966 42.1441 453.525C43.019 454.085 84.3073 454.644 85.8813 453.525C87.456 452.406 86.0904 445.32 63.9427 438.421C63.9435 438.421 50.892 433.945 44.7687 438.421Z" fill="white"/>
</mask>
<g mask="url(#mask0_3546_7610)">
<path d="M79.8847 443.231C79.7012 443.231 72.3658 443.166 69.4928 448.965H50.2992C50.2992 448.965 46.8757 441.537 39.5412 444.6C32.2059 447.662 36.3626 459.129 36.3626 459.129L89.4819 455.285L85.8757 443.623L79.8847 443.231Z" fill="white"/>
</g>
<path d="M46.9572 423.583L46.0371 439.228C46.0371 439.228 51.2727 442.452 58.0968 439.087L58.6704 423.584H46.9572V423.583Z" fill="#735546"/>
<path d="M93.7902 438.422C93.7902 438.422 90.2916 452.967 91.1656 453.526C92.0405 454.086 133.329 454.645 134.904 453.526C136.478 452.407 135.113 445.321 112.964 438.422C112.964 438.422 99.9135 433.946 93.7902 438.422Z" fill="#F4CA60"/>
<mask id="mask1_3546_7610" style="mask-type:luminance" maskUnits="userSpaceOnUse" x="91" y="436" width="45" height="19">
<path d="M93.7922 438.423C93.7922 438.423 90.2935 452.968 91.1675 453.527C92.0424 454.087 133.331 454.646 134.906 453.527C136.48 452.408 135.115 445.322 112.966 438.423C112.966 438.423 99.9155 433.947 93.7922 438.423Z" fill="white"/>
</mask>
<g mask="url(#mask1_3546_7610)">
<path d="M128.906 443.232C128.723 443.232 121.387 443.167 118.514 448.966H99.3207C99.3207 448.966 95.898 441.538 88.5627 444.601C81.2274 447.663 85.3841 459.13 85.3841 459.13L138.503 455.286L134.897 443.624L128.906 443.232Z" fill="white"/>
</g>
<path d="M94.7949 424.63L95.9583 438.825C95.9583 438.825 102.423 441.425 107.33 438.395L106.374 422.739L94.7949 424.63Z" fill="#735546"/>
<path d="M91.5645 418.626C91.5645 418.626 91.9025 425.359 93.5609 425.962C95.2193 426.564 96.5449 426.013 98.6514 426.048C100.758 426.083 104.885 425.99 106.734 425.611C108.584 425.233 109.471 424.591 108.515 418.094C107.559 411.596 91.5645 418.626 91.5645 418.626Z" fill="#8CB1CC"/>
<path d="M45.461 423.391C45.333 424.563 46.4528 425.049 47.0699 425.231C48.4236 425.633 51.1285 425.658 52.5258 425.817C55.0087 426.1 56.5579 426.007 59.0408 426.29C59.4284 426.334 60.4816 426.372 60.8461 426.225C61.5904 425.924 61.2046 424.936 61.3565 424.102C61.5247 423.18 61.9659 422.188 62.0223 421.25C62.0291 421.132 62.0351 421.011 62.0043 420.896C61.9446 420.676 61.7611 420.523 61.5844 420.394C59.8696 419.143 57.7733 418.654 55.7206 418.309C54.121 418.04 52.4976 417.842 50.8844 417.994C49.3881 418.135 47.7374 418.601 46.504 419.558C46.0525 419.908 45.2348 419.303 45.1853 419.877C45.1153 420.702 45.5557 422.524 45.461 423.391Z" fill="#8CB1CC"/>
<path d="M42.3423 334.411C42.3423 334.411 42.2433 378.311 41.6083 379.461C41.1388 380.31 40.7223 402.276 40.5362 413.702C40.4739 417.556 43.195 420.808 46.7935 421.192C51.2994 421.672 57.287 422.246 61.605 422.421C64.0709 422.52 66.1971 420.598 66.5189 417.991L74.4141 353.974C74.4141 353.974 79.7231 353.016 80.3053 353.016C80.8037 353.016 87.0883 403.458 88.8688 417.837C89.1368 420 90.8849 421.594 92.9308 421.543C99.1736 421.387 104.934 423.581 111.464 418.773C118.343 413.707 102.461 321.397 102.461 321.397L42.3423 334.411Z" fill="#A3D2F4"/>
<path d="M43.9178 338.368C43.9178 338.368 42.6349 355.446 43.9178 356.475C45.2015 357.504 54.7023 352.977 57.9637 350.919C61.2242 348.861 62.962 328.015 62.962 328.015L43.9178 338.368Z" fill="#8CB1CC"/>
<path d="M92.1113 324.171C92.1113 324.171 96.3586 351.332 98.2893 352.978C100.22 354.623 103.502 354.623 103.502 354.623L101.571 324.17H92.1113V324.171Z" fill="#8CB1CC"/>
<path d="M73.1483 331.604C73.1483 331.604 69.2323 340.284 69.5429 347.374C69.5429 347.374 70.1643 347.97 70.5373 347.374C70.9103 346.778 71.7809 336.508 75.0133 331.604C78.2457 326.701 73.1483 331.604 73.1483 331.604Z" fill="white"/>
<path d="M84.8823 331.604C84.8823 331.604 88.7983 340.284 88.4876 347.374C88.4876 347.374 87.8662 347.97 87.4932 347.374C87.1202 346.778 86.2496 336.508 83.0173 331.604C79.7841 326.701 84.8823 331.604 84.8823 331.604Z" fill="white"/>
<path d="M76.0883 332.334C76.0883 332.334 74.9522 349.959 75.3252 350.622C75.6982 351.285 80.4225 350.224 80.6709 349.562C80.9193 348.9 80.6709 329.883 80.6709 329.883L76.0883 332.334Z" fill="#8CB1CC"/>
<path d="M51.8646 212.68C51.414 212.756 51.0469 213.09 50.6748 213.371C48.5239 214.993 45.4042 214.977 43.2678 213.333C41.1314 211.689 40.1361 208.537 40.9035 205.851C38.1858 206.295 35.2982 205.353 33.2788 203.364C31.2601 201.374 30.1531 198.379 30.3562 195.456C28.213 195.433 25.7138 195.215 24.5351 193.307C23.9154 192.304 23.8198 191.046 23.743 189.848C23.632 188.123 23.5237 186.367 23.9035 184.687C24.2825 183.007 25.2324 181.383 26.7116 180.675C25.5704 176.71 24.4165 172.622 24.7656 168.492C25.1146 164.362 27.339 160.128 31.034 158.829C31.5179 158.659 32.0539 158.517 32.3706 158.091C32.6113 157.766 32.6762 157.334 32.7146 156.922C32.9997 153.889 32.3279 150.748 33.12 147.819C33.8694 145.047 35.9785 142.737 38.5571 141.861C41.1365 140.985 44.1102 141.57 46.2253 143.37C47.4015 140.983 49.2741 138.817 51.7212 138.134C54.1692 137.451 57.166 138.705 57.9427 141.272C59.7112 138.317 62.6841 135.896 65.9703 136.003C69.2572 136.11 72.3932 139.582 71.5251 142.963C74.1182 141.134 77.2037 139.62 80.2534 140.268C83.3031 140.915 85.8595 144.613 84.4998 147.595C87.2832 146.855 90.1613 146.111 92.9908 146.61C95.8203 147.108 98.6122 149.189 99.132 152.195C99.6305 155.075 98.0045 157.836 96.4545 160.253C99.616 161.628 102.097 164.663 102.944 168.189C103.791 171.715 102.982 175.647 100.828 178.471C100.546 178.841 100.226 179.241 100.24 179.717C100.251 180.099 100.477 180.429 100.685 180.74C101.96 182.659 102.843 184.983 102.647 187.324C102.451 189.667 100.981 191.97 98.8444 192.556C99.6612 193.271 100.187 194.431 99.9796 195.536C99.773 196.64 98.7061 197.549 97.6725 197.318C99.2951 198.459 99.4777 201.171 98.3007 202.82C97.1237 204.469 94.9651 205.077 93.0514 204.718C93.4884 206.847 93.6566 209.637 91.8351 210.629C91.2453 210.95 90.5582 210.989 89.8967 210.979C87.6528 210.946 85.4438 210.429 83.2331 210.018C76.9502 208.852 70.3139 208.369 63.9593 209.133C62.032 209.365 60.674 210.001 59.1095 211.196C58.098 211.969 57.1481 212.901 55.907 213.222C54.3971 213.612 53.2337 212.448 51.8646 212.68Z" fill="#222220"/>
<path d="M98.1278 185.508H86.1953L86.4591 186.325C86.4591 186.325 98.3386 187.159 98.3301 187.039C98.3224 186.919 98.1278 185.508 98.1278 185.508Z" fill="#D66156"/>
<path d="M58.2023 211.58C58.2023 211.58 59.055 223.696 58.2023 223.999C57.3496 224.302 46.9766 231.875 46.9766 231.875L66.4433 238.842L85.6258 235.359L86.1942 225.211C86.1942 225.211 76.9581 221.425 76.3896 221.274C75.8211 221.122 74.2583 210.823 74.2583 210.823L58.2023 211.58Z" fill="#684D3F"/>
<path d="M49.1055 182.5C49.1055 182.5 52.5154 210.67 55.7836 213.093C59.0518 215.517 81.9292 220.969 84.9132 213.85C87.8972 206.732 87.3288 170.837 85.4817 169.172C83.6346 167.506 58.4842 167.96 58.4842 167.96L49.1055 182.5Z" fill="#735546"/>
<path d="M93.0175 173.91C92.7136 171.676 92.2638 169.379 91.0185 167.552C89.0545 164.668 85.5635 163.548 82.2961 162.794C75.5651 161.24 68.6565 160.463 61.7778 160.82C59.2889 160.95 56.7462 161.244 54.5023 162.402C50.4915 164.469 48.0879 168.919 46.3646 173.299C44.3076 178.525 42.9001 184.633 45.2115 189.737C46.4303 192.429 48.6273 194.688 49.0652 197.64C49.2274 198.733 49.1343 199.87 49.4322 200.93C49.7293 201.99 50.6084 203.004 51.6395 202.874C52.8421 202.724 53.408 201.245 53.7238 199.999C53.8706 199.421 54.0175 198.817 53.9099 198.228C53.8032 197.64 53.3611 197.074 52.7995 197.061C54.3435 195.311 54.6465 192.961 53.6334 190.902C52.6697 188.943 52.7841 188.268 52.9847 186.043C54.0217 185.863 54.6704 187.132 55.7348 187.031C56.7539 186.934 57.4649 185.767 57.8157 184.856C58.3193 183.545 58.6095 182.141 58.6675 180.724C60.547 180.443 62.5691 181.561 64.2949 180.721C65.367 180.2 66.0439 179.008 66.2991 177.782C66.5543 176.557 66.4501 175.282 66.3452 174.031C67.6801 173.478 69.1106 174.794 70.5335 174.623C71.976 174.45 72.8432 172.88 73.4816 171.491C75.1136 172.681 77.1527 173.221 79.1167 172.985C78.6822 174.586 79.3113 176.448 80.6044 177.386C81.8975 178.324 83.754 178.264 84.9916 177.245C85.2605 178.554 85.741 179.814 86.4076 180.949C88.1659 181.338 90.1735 181.604 91.6023 180.444C93.3572 179.021 93.3333 176.235 93.0175 173.91Z" fill="#222220"/>
<path d="M65.0241 192C65.0241 193.975 64.3242 195.576 63.4613 195.576C62.5983 195.576 61.8984 193.975 61.8984 192C61.8984 190.025 62.5983 188.424 63.4613 188.424C64.3242 188.424 65.0241 190.025 65.0241 192Z" fill="#222220"/>
<path d="M83.4264 192C83.4264 193.975 82.7265 195.576 81.8636 195.576C81.0007 195.576 80.3008 193.975 80.3008 192C80.3008 190.025 81.0007 188.424 81.8636 188.424C82.7265 188.424 83.4264 190.025 83.4264 192Z" fill="#222220"/>
<path d="M78.2348 206.699C78.2348 209.56 75.4361 211.879 71.9827 211.879C68.5301 211.879 65.7305 209.56 65.7305 206.699C65.7305 203.837 68.5301 205.973 71.9827 205.973C75.4352 205.973 78.2348 203.838 78.2348 206.699Z" fill="white"/>
<path d="M72.3558 186.06C72.2363 188.994 71.9948 192.632 73.579 195.218C74.2994 196.394 75.7657 197.008 75.9262 198.543C76.1259 200.452 73.8973 200.868 72.5965 200.998C71.976 201.06 71.97 202.102 72.5965 202.039C73.9776 201.9 75.4943 201.653 76.388 200.39C77.2509 199.17 76.9359 197.627 76.0935 196.499C75.595 195.831 74.8687 195.407 74.4223 194.692C73.9323 193.909 73.6933 192.934 73.5235 192.02C73.159 190.063 73.2521 188.041 73.3323 186.059C73.3596 185.39 72.3831 185.391 72.3558 186.06Z" fill="#5B3F30"/>
<path d="M98.3491 187.788C98.3491 180.632 92.9061 180.074 86.1921 180.074C79.4782 180.074 74.0352 180.632 74.0352 187.788C74.0352 194.944 79.4782 200.746 86.1921 200.746C92.9061 200.746 98.3491 194.944 98.3491 187.788Z" stroke="#D66156" stroke-width="1.3728" stroke-miterlimit="10"/>
<path d="M32.6682 191.575C33.2683 191.367 33.5986 190.683 33.5235 190.015C33.4467 189.333 33.2367 187.966 33.6498 187.742C35.0308 186.993 35.5472 186.84 47.1255 186.745L47.3329 185.389C47.3329 185.389 33.264 185.955 32.8193 187.063C31.7345 189.76 31.9052 191.84 32.6682 191.575Z" fill="#D66156"/>
<path d="M46.9796 187.803C46.9796 187.803 42.2903 184.32 41.1534 187.803C40.0165 191.287 44.3098 201.304 49.1109 196.436L46.9796 187.803Z" fill="#735546"/>
<path d="M71.394 187.788C71.394 180.632 65.951 180.074 59.2371 180.074C52.5231 180.074 47.0801 180.632 47.0801 187.788C47.0801 194.944 52.5231 200.746 59.2371 200.746C65.951 200.746 71.394 194.944 71.394 187.788Z" stroke="#D66156" stroke-width="1.3728" stroke-miterlimit="10"/>
<path d="M71.3965 187.593C71.3965 187.593 72.8441 186.717 73.8077 187.593V186.277L71.3965 186.445V187.593Z" fill="#D66156"/>
<path d="M51.7026 228.459C51.7026 228.459 56.6532 236.814 70.268 234.573C83.8828 232.334 84.6561 224.58 84.6561 224.58C84.6561 224.58 102.888 216.325 115.862 238.841C128.837 261.357 127.01 311.416 127.01 311.416L41.3901 298.393L26.3652 237.308C26.3652 237.308 37.0345 230.825 51.7026 228.459Z" fill="white"/>
<path d="M73.2061 246.245C94.1315 243.779 100.863 232.545 103.029 225.638C101.18 224.683 99.368 224.053 97.6439 223.661C95.096 229.475 88.7192 237.688 72.7631 240.896C53.2938 244.809 42.5478 236.301 38.4337 231.872C36.561 232.531 34.8642 233.205 33.373 233.843C39.032 239.582 51.6935 248.781 73.2061 246.245Z" fill="#A3D2F4"/>
<path d="M29.7982 251.252C41.2117 256.119 55.2132 258.749 72.6135 259.935C91.6074 261.23 108.119 245.709 115.235 237.806C114.124 235.984 112.979 234.369 111.812 232.954C107.095 240.97 96.2174 253.424 73.4986 255.529C53.3602 257.396 37.7933 251.177 28.459 245.808L29.7982 251.252Z" fill="#EF8A62"/>
<path d="M47.6649 268.273V262.136L31.6875 258.94L33.235 265.228L47.6649 268.273Z" fill="#A3D2F4"/>
<path d="M41.6132 275.512V270.005H34.4102L35.7647 275.512H41.6132Z" fill="#EF8A62"/>
<path d="M41.6135 280.388L37.123 281.03L38.0568 284.829L41.6135 283.849V280.388Z" fill="#A3D2F4"/>
<path d="M41.6142 287.978C40.7683 288.13 39.8926 288.364 38.998 288.652L40.3961 294.336C42.3789 293.439 43.5329 293.054 43.5329 293.054C43.5329 293.054 56.6715 285.265 41.6142 287.978Z" fill="#EF8A62"/>
<path d="M34.1719 243.413L47.6629 337.187L152.285 323.468L141.694 229.095L34.1719 243.413Z" fill="#383838"/>
<path d="M39.6738 256.076L50.3687 332.774L149.239 320.659L140.262 242.659L39.6738 256.076Z" fill="#222220"/>
<path d="M131.793 237.904C131.727 239.599 130.383 240.917 128.792 240.846C127.201 240.775 125.965 239.343 126.032 237.647C126.098 235.951 127.442 234.634 129.033 234.705C130.624 234.775 131.86 236.208 131.793 237.904Z" fill="#EF8A62"/>
<path d="M139.119 237.125C139.053 238.821 137.709 240.138 136.118 240.067C134.527 239.997 133.291 238.565 133.358 236.869C133.425 235.173 134.768 233.856 136.359 233.927C137.95 233.998 139.186 235.429 139.119 237.125Z" fill="#F4CA60"/>
<path d="M124.198 238.611C124.131 240.306 122.788 241.624 121.197 241.553C119.606 241.482 118.37 240.05 118.436 238.354C118.503 236.658 119.846 235.341 121.437 235.412C123.028 235.483 124.264 236.915 124.198 238.611Z" fill="#CCED98"/>
<path d="M63.6 273.611L55.0312 274.75L55.2873 276.937L63.8561 275.798L63.6 273.611Z" fill="#CCED98"/>
<path d="M70.5225 272.688L64.8613 273.44L65.1174 275.628L70.7785 274.875L70.5225 272.688Z" fill="#F4CA60"/>
<path d="M80.525 275.062L59.084 277.913L59.34 280.1L80.781 277.249L80.525 275.062Z" fill="white"/>
<path d="M97.8443 272.759L81.5664 274.924L81.8224 277.111L98.1003 274.947L97.8443 272.759Z" fill="white"/>
<path d="M101.469 272.278L98.8379 272.628L99.0939 274.815L101.725 274.465L101.469 272.278Z" fill="#CCED98"/>
<path d="M64.4594 280.899L59.5156 281.557L59.7717 283.744L64.7154 283.087L64.4594 280.899Z" fill="#CCED98"/>
<path d="M62.641 284.844L57.6973 285.501L57.9533 287.688L62.8971 287.031L62.641 284.844Z" fill="#EF8A62"/>
<path d="M63.686 293.778L58.7422 294.436L58.9982 296.623L63.942 295.966L63.686 293.778Z" fill="#EF8A62"/>
<path d="M81.2578 286.072L62.1426 288.614L62.3986 290.802L81.5139 288.26L81.2578 286.072Z" fill="white"/>
<path d="M116.983 281.321L113.16 281.829L113.416 284.016L117.239 283.508L116.983 281.321Z" fill="#CCED98"/>
<path d="M112.569 281.908L81.8047 285.999L82.0607 288.186L112.825 284.095L112.569 281.908Z" fill="white"/>
<path d="M82.4434 296.189L63.3281 298.73L63.5842 300.918L82.6994 298.376L82.4434 296.189Z" fill="white"/>
<path d="M118.169 291.44L114.346 291.948L114.602 294.136L118.425 293.627L118.169 291.44Z" fill="#F4CA60"/>
<path d="M113.751 292.025L82.9863 296.116L83.2424 298.304L114.007 294.213L113.751 292.025Z" fill="white"/>
<path d="M76.3761 300.977L66.5547 302.283L66.8107 304.471L76.6322 303.165L76.3761 300.977Z" fill="#EF8A62"/>
<path d="M121.395 294.991L117.572 295.499L117.828 297.686L121.652 297.178L121.395 294.991Z" fill="#CCED98"/>
<path d="M113.36 300.035L109.537 300.543L109.793 302.73L113.616 302.222L113.36 300.035Z" fill="#CCED98"/>
<path d="M128.573 309.957L124.75 310.466L125.006 312.653L128.829 312.145L128.573 309.957Z" fill="#F4CA60"/>
<path d="M116.981 295.577L76.7793 300.923L77.0353 303.11L117.237 297.764L116.981 295.577Z" fill="white"/>
<path d="M81.9504 304.214L72.1289 305.521L72.3849 307.708L82.2064 306.402L81.9504 304.214Z" fill="#EF8A62"/>
<path d="M108.74 300.652L82.3516 304.161L82.6076 306.349L108.996 302.839L108.74 300.652Z" fill="white"/>
<path d="M87.5168 307.455L77.6953 308.761L77.9513 310.948L87.7728 309.642L87.5168 307.455Z" fill="#EF8A62"/>
<path d="M128.119 302.055L87.918 307.401L88.174 309.589L128.375 304.243L128.119 302.055Z" fill="white"/>
<path d="M93.091 310.694L83.2695 312L83.5256 314.187L93.347 312.881L93.091 310.694Z" fill="#EF8A62"/>
<path d="M133.696 305.296L93.4941 310.642L93.7502 312.829L133.952 307.483L133.696 305.296Z" fill="white"/>
<path d="M93.548 314.613L83.7266 315.919L83.9826 318.106L93.8041 316.8L93.548 314.613Z" fill="#EF8A62"/>
<path d="M123.926 310.573L93.9492 314.56L94.2053 316.747L124.182 312.761L123.926 310.573Z" fill="white"/>
<path d="M98.2698 276.405L65.7148 280.734L65.9709 282.922L98.5258 278.593L98.2698 276.405Z" fill="white"/>
<path d="M101.896 275.923L99.2656 276.272L99.5217 278.46L102.152 278.11L101.896 275.923Z" fill="#CCED98"/>
<path d="M52.1543 259.754C52.1543 259.754 53.1828 271.133 53.4841 271.126C54.0688 271.113 69.2815 268.835 69.2815 268.835L67.6512 257.322L52.1543 259.754Z" fill="#EF8A62"/>
<path d="M57.2648 260.203L55.0234 265.393L59.4499 269.193L60.2437 268.265L56.4284 265.09L58.5699 260.738L57.2648 260.203Z" fill="white"/>
<path d="M60.377 260.417L64.9289 263.343L62.6525 268.195L63.3891 268.836L66.3014 262.879L60.6859 259.419L60.377 260.417Z" fill="white"/>
<path d="M45 340.218C45 340.218 49.7056 345.237 51.3947 345.069C53.0839 344.902 53.7906 343.145 53.7906 343.145C53.7906 343.145 57.1869 343.898 57.961 343.396C58.7352 342.894 58.4569 340.385 58.7531 340.218C59.0493 340.05 59.9976 340.336 61.4102 339.917C62.8228 339.499 62.4541 336.937 62.6896 336.853C62.9252 336.77 66.487 336.445 66.3991 334.872C66.1473 330.353 61.1114 329.259 57.961 328.088C54.8106 326.916 45 340.218 45 340.218Z" fill="#735546"/>
<path d="M38.6641 336.557C38.6641 336.557 41.0565 341.906 43.9168 341.906C46.777 341.906 59.3249 330.735 58.7342 326.329C58.1436 321.924 52.6818 319.721 52.6818 319.721L38.6641 336.557Z" fill="#EF8A62"/>
<path d="M33.0112 234.659C33.0112 234.659 14.8914 238.062 6.18185 263.393C-2.52768 288.725 -2.67535 302.413 9.87256 317.675C22.4196 332.938 23.3056 332.308 29.2104 339.073C35.1152 345.839 47.0716 332.779 49.1389 329.632C51.2053 326.486 61.0961 319.628 56.9624 311.413C52.8296 303.199 43.8973 301.713 42.0895 295.848C40.2817 289.984 33.0112 234.659 33.0112 234.659Z" fill="white"/>
<path d="M21.0621 240.898C19.8339 241.87 18.5877 243.052 17.3262 244.348C22.6198 248.121 28.709 251.113 35.5561 253.435C35.3538 251.952 35.1575 250.512 34.9714 249.137C28.5204 246.222 23.7329 242.946 21.0621 240.898Z" fill="#EF8A62"/>
<path d="M37.311 266.086C37.0182 264.01 36.728 261.933 36.4446 259.89L10.0053 254.6C9.14239 256.201 8.32128 257.938 7.54883 259.805L37.311 266.086Z" fill="#A3D2F4"/>
<path d="M51.3952 304.818C49.3296 303.148 47.1924 301.805 45.4546 300.359C34.338 308.684 23.4759 322.818 19.25 328.613C21.4564 331.024 22.9851 332.533 24.466 334.018C32.8785 323.706 45.4469 310.809 51.3952 304.818Z" fill="#A3D2F4"/>
<path d="M38.6626 275.51C38.3997 273.715 38.1334 271.871 37.8662 270.003H4.02927C3.44801 271.907 2.93076 273.738 2.4707 275.51H38.6626Z" fill="#EF8A62"/>
<path d="M39.4351 280.697L0.365078 286.287C-0.0070658 289.461 -0.0915654 292.435 0.126088 295.273L39.9873 284.294C39.8081 283.147 39.6237 281.945 39.4351 280.697Z" fill="#A3D2F4"/>
<path d="M40.61 288.199C29.0718 290.951 13.0679 305.803 6.17383 312.646C7.25783 314.315 8.48266 315.985 9.87222 317.676C9.96867 317.793 10.0583 317.9 10.153 318.016C23.062 302.629 36.682 295.879 41.6086 293.801C41.3252 292.402 40.9864 290.489 40.61 288.199Z" fill="#EF8A62"/>
<path d="M33.0112 234.659C33.0112 234.659 14.8914 238.062 6.18185 263.393C-2.52768 288.725 -2.67535 302.413 9.87256 317.675C22.4196 332.938 23.3056 332.308 29.2104 339.073C35.1152 345.839 47.0716 332.779 49.1389 329.632C51.2053 326.486 61.0961 319.628 56.9624 311.413C52.8296 303.199 43.8973 301.713 42.0895 295.848C40.2817 289.984 33.0112 234.659 33.0112 234.659Z" fill="white"/>
<path d="M21.0621 240.898C19.8339 241.87 18.5877 243.052 17.3262 244.348C22.6198 248.121 28.709 251.113 35.5561 253.435C35.3538 251.952 35.1575 250.512 34.9714 249.137C28.5204 246.222 23.7329 242.946 21.0621 240.898Z" fill="#EF8A62"/>
<path d="M37.311 266.086C37.0182 264.01 36.728 261.933 36.4446 259.89L10.0053 254.6C9.14239 256.201 8.32128 257.938 7.54883 259.805L37.311 266.086Z" fill="#A3D2F4"/>
<path d="M51.3952 304.818C49.3296 303.148 47.1924 301.805 45.4546 300.359C34.338 308.684 23.4759 322.818 19.25 328.613C21.4564 331.024 22.9851 332.533 24.466 334.018C32.8785 323.706 45.4469 310.809 51.3952 304.818Z" fill="#A3D2F4"/>
<path d="M38.6626 275.51C38.3997 273.715 38.1334 271.871 37.8662 270.003H4.02927C3.44801 271.907 2.93076 273.738 2.4707 275.51H38.6626Z" fill="#EF8A62"/>
<path d="M39.4351 280.697L0.365078 286.287C-0.0070658 289.461 -0.0915654 292.435 0.126088 295.273L39.9873 284.294C39.8081 283.147 39.6237 281.945 39.4351 280.697Z" fill="#A3D2F4"/>
<path d="M40.61 288.199C29.0718 290.951 13.0679 305.803 6.17383 312.646C7.25783 314.315 8.48266 315.985 9.87222 317.676C9.96867 317.793 10.0583 317.9 10.153 318.016C23.062 302.629 36.682 295.879 41.6086 293.801C41.3252 292.402 40.9864 290.489 40.61 288.199Z" fill="#EF8A62"/>
<path d="M56.9611 311.415C52.8274 303.2 43.896 301.714 42.0882 295.849C41.2816 293.234 39.3893 280.778 37.5397 267.781C36.2926 271.049 34.2962 273.93 31.5836 276.016C30.34 276.972 28.9471 277.781 28.0227 279.085C27.042 280.47 26.7074 282.269 26.7253 284.004C26.7756 288.958 29.4856 293.53 32.9826 296.793C36.4804 300.055 40.7319 302.226 44.8904 304.439C47.5082 305.832 50.33 307.512 51.3329 310.442C52.2743 313.19 51.3235 316.24 50.1883 318.903C49.036 321.607 47.6857 324.215 46.1536 326.696C44.3347 329.643 42.1744 332.674 42.1428 336.201C42.1411 336.42 42.153 336.648 42.2171 336.854C45.5109 334.193 48.2456 330.991 49.1376 329.634C51.204 326.487 61.094 319.629 56.9611 311.415Z" fill="#EEEEEE"/>
<path d="M145.645 256.075C145.645 256.075 148.775 252.67 145.459 249.988C143.863 248.697 133.779 250.316 135.132 253.392C136.485 256.468 144.14 253.873 145.645 256.075Z" fill="#735546"/>
<path d="M145.738 261.654C145.738 261.654 149.452 258.228 145.552 255.567C143.674 254.286 131.761 255.968 133.341 259.036C134.921 262.105 143.972 259.461 145.738 261.654Z" fill="#735546"/>
<path d="M146.179 267.664C146.179 267.664 149.309 264.259 145.993 261.577C144.396 260.286 134.313 261.905 135.666 264.981C137.018 268.058 144.672 265.462 146.179 267.664Z" fill="#735546"/>
<path d="M146.679 272.426C146.679 272.426 149.36 269.509 146.52 267.213C145.153 266.107 136.517 267.494 137.675 270.128C138.834 272.763 145.389 270.541 146.679 272.426Z" fill="#735546"/>
<path opacity="0.2" d="M189.295 461.987C225.891 461.987 255.558 458.786 255.558 454.836C255.558 450.887 225.891 447.686 189.295 447.686C152.698 447.686 123.031 450.887 123.031 454.836C123.031 458.786 152.698 461.987 189.295 461.987Z" fill="#383838"/>
<path d="M199.243 102L195.249 299.448C195.249 299.448 89.9547 300.183 88.1396 299.448C86.3244 298.714 84.7148 102 84.7148 102H199.243Z" fill="#383838"/>
<path d="M91.873 121.922L94.3995 291.072H190.073L192.624 121.922H91.873Z" fill="#222220"/>
<path d="M120.842 153.741H115.676V157.176H120.842V153.741Z" fill="#A3D2F4"/>
<path d="M107.501 153.744H102.334V157.179H107.501V153.744Z" fill="white"/>
<path d="M107.503 160.872H102.336V164.307H107.503V160.872Z" fill="white"/>
<path d="M107.505 167.997H102.338V171.432H107.505V167.997Z" fill="white"/>
<path d="M107.505 175.122H102.338V178.557H107.505V175.122Z" fill="white"/>
<path d="M107.505 182.246H102.338V185.681H107.505V182.246Z" fill="white"/>
<path d="M107.505 189.371H102.338V192.806H107.505V189.371Z" fill="white"/>
<path d="M107.505 196.496H102.338V199.931H107.505V196.496Z" fill="white"/>
<path d="M107.505 203.621H102.338V207.056H107.505V203.621Z" fill="white"/>
<path d="M107.508 210.745H102.342V214.18H107.508V210.745Z" fill="white"/>
<path d="M107.508 217.87H102.342V221.305H107.508V217.87Z" fill="white"/>
<path d="M107.512 224.995H102.346V228.43H107.512V224.995Z" fill="white"/>
<path d="M107.512 232.121H102.346V235.556H107.512V232.121Z" fill="white"/>
<path d="M107.514 239.247H102.348V242.682H107.514V239.247Z" fill="white"/>
<path d="M107.514 246.372H102.348V249.807H107.514V246.372Z" fill="white"/>
<path d="M107.514 253.496H102.348V256.931H107.514V253.496Z" fill="white"/>
<path d="M107.514 260.621H102.348V264.056H107.514V260.621Z" fill="white"/>
<path d="M127.512 153.74H122.346V157.176H127.512V153.74Z" fill="#EF8A62"/>
<path d="M165.033 153.73H157.205V157.166H165.033V153.73Z" fill="#A3D2F4"/>
<path d="M155.703 153.733H129.02V157.169H155.703V153.733Z" fill="white"/>
<path d="M120.844 160.866H115.678V164.301H120.844V160.866Z" fill="#A3D2F4"/>
<path d="M160.639 160.858H134.418V164.294H160.639V160.858Z" fill="white"/>
<path d="M117.837 167.229H112.67V170.664H117.837V167.229Z" fill="#EF8A62"/>
<path d="M122.776 173.589H117.609V177.024H122.776V173.589Z" fill="#EF8A62"/>
<path d="M140.049 173.586H123.854V177.021H140.049V173.586Z" fill="white"/>
<path d="M157.322 173.581H141.127V177.016H157.322V173.581Z" fill="white"/>
<path d="M165.499 173.579H158.404V177.014H165.499V173.579Z" fill="#F4CA60"/>
<path d="M125.356 179.95H120.189V183.385H125.356V179.95Z" fill="#EF8A62"/>
<path d="M140.91 179.948H126.439V183.384H140.91V179.948Z" fill="#A3D2F4"/>
<path d="M156.459 179.943H141.988V183.379H156.459V179.943Z" fill="white"/>
<path d="M132.956 199.544H120.193V202.979H132.956V199.544Z" fill="#EF8A62"/>
<path d="M146.761 199.54H133.998V202.975H146.761V199.54Z" fill="white"/>
<path d="M160.568 199.537H147.805V202.972H160.568V199.537Z" fill="#F4CA60"/>
<path d="M146.452 213.536H131.838V216.971H146.452V213.536Z" fill="white"/>
<path d="M137.012 219.389H131.846V222.824H137.012V219.389Z" fill="#EF8A62"/>
<path d="M156.466 219.387H138.332V222.822H156.466V219.387Z" fill="#A3D2F4"/>
<path d="M161.128 219.384H157.33V222.819H161.128V219.384Z" fill="#F4CA60"/>
<path d="M150.2 227.784H145.033V231.219H150.2V227.784Z" fill="#A3D2F4"/>
<path d="M155.366 235.543H150.199V238.978H155.366V235.543Z" fill="#EF8A62"/>
<path d="M161.815 235.542H156.648V238.977H161.815V235.542Z" fill="#A3D2F4"/>
<path d="M181.011 235.538H163.1V238.973H181.011V235.538Z" fill="white"/>
<path d="M155.366 243.305H150.199V246.74H155.366V243.305Z" fill="#A3D2F4"/>
<path d="M185.326 243.298H176.65V246.733H185.326V243.298Z" fill="#F4CA60"/>
<path d="M175.766 243.301H159.58V246.736H175.766V243.301Z" fill="white"/>
<path d="M211.256 411.232C211.256 411.232 212.537 453.154 213.305 453.266C214.074 453.377 244.387 454.67 245.753 453.671C247.12 452.672 225.86 438.071 223.298 437.074L223.041 405.798L211.256 411.232Z" fill="#F2CBB6"/>
<path d="M219.884 446.279C219.884 446.279 219.872 434.541 212.149 435.974C212.149 435.974 211.502 453.487 212.149 454.042C212.796 454.597 246.183 456.443 247.037 454.891C247.891 453.338 236.273 443.857 233.379 443.284C230.484 442.711 229.621 449.939 229.621 449.939C229.621 449.939 220.909 449.606 219.884 446.279Z" fill="#CCED98"/>
<path d="M179.025 401.67C179.025 401.67 165.961 453.499 165.187 453.52C164.414 453.542 136.609 453.85 135.316 452.697C134.025 451.544 154.519 439.797 157.14 439.101L163.256 397.83L179.025 401.67Z" fill="#F2CBB6"/>
<path d="M160.917 447.419C160.917 447.419 162.362 435.077 168.609 441.972C168.609 441.972 166.971 453.952 166.289 454.429C165.607 454.906 134.7 455.408 133.957 453.763C133.214 452.117 147.718 441.844 149.033 443.241C150.403 444.696 149.172 448.305 149.172 448.305C149.172 448.305 159.082 448.775 160.917 447.419Z" fill="#CCED98"/>
<path d="M185.971 182.422C183.93 182.422 181.979 181.483 180.418 179.734C178.694 177.803 177.653 175.117 177.485 172.169C177.317 169.221 178.044 166.364 179.53 164.126C181.017 161.887 183.086 160.534 185.356 160.316C190.04 159.871 194.137 164.452 194.483 170.538C194.829 176.624 191.298 181.942 186.611 182.391C186.397 182.411 186.184 182.422 185.971 182.422ZM185.989 161.979C185.811 161.979 185.632 161.987 185.452 162.005C183.529 162.189 181.777 163.335 180.517 165.231C179.258 167.127 178.643 169.546 178.784 172.044C178.926 174.541 179.808 176.816 181.269 178.451C182.729 180.088 184.593 180.89 186.515 180.701C190.484 180.321 193.475 175.817 193.183 170.662C192.903 165.742 189.729 161.979 185.989 161.979Z" fill="#EF8A62"/>
<path d="M186.492 154.761C186.492 154.761 180.337 191.378 187.574 199.338C194.811 207.296 190.232 152.356 190.232 152.356L186.492 154.761Z" fill="#F2CBB6"/>
<path d="M221.969 216.279C221.969 216.279 234.744 256.179 232.852 265.262C230.96 274.346 217.488 278.543 217.488 278.543L221.969 216.279Z" fill="#F2CBB6"/>
<path d="M186.315 235.908C186.315 235.908 147.247 226.075 144.518 217.194C141.789 208.313 140.49 175.716 140.49 175.716L146.455 176.347C146.455 176.347 150.743 206.118 153.559 206.756C156.374 207.395 191.337 212.943 191.337 212.943L186.315 235.908Z" fill="#F2CBB6"/>
<path d="M221.966 216.28C221.966 216.28 218.409 259.582 220.542 286.133C222.675 312.683 180.039 282.135 180.039 282.135C180.039 282.135 180.72 279.504 184.804 230.856C188.887 182.208 221.966 216.28 221.966 216.28Z" fill="#F2CBB6"/>
<path d="M221.554 284.432C221.554 284.432 233.242 414.539 229.159 418.112C225.075 421.684 206.194 421.905 201.84 420.733L199.105 335.281L194.265 334.128L183.575 418.906C183.575 418.906 157.749 415.809 154.331 414.943C150.912 414.077 176.758 279.612 178.396 279.425C181.448 279.076 221.554 284.432 221.554 284.432Z" fill="#EF8A62"/>
<path d="M221.004 301.681C221.004 301.681 221.301 320.568 218.976 324.069C216.65 327.571 211.425 329.333 211.425 329.333C211.425 329.333 202.893 328.133 201.892 324.194C200.891 320.255 201.309 300.291 201.309 300.291L221.004 301.681Z" fill="#BF7759"/>
<path d="M177.259 295.831C177.259 295.831 173.684 314.142 175.34 318.235C176.996 322.328 181.78 325.577 181.78 325.577C181.78 325.577 190.301 326.912 191.961 323.368C193.62 319.824 196.686 300.254 196.686 300.254L177.259 295.831Z" fill="#BF7759"/>
<path d="M220.095 285.755L219.745 293.975L217.656 293.807L217.889 285.598L220.095 285.755Z" fill="#BF7759"/>
<path d="M212.503 285.083L212.014 293.463L209.738 293.387L210.036 284.655L212.503 285.083Z" fill="#BF7759"/>
<path d="M204.486 284.775L203.715 292.341L201.312 292.055L201.883 284.109L204.486 284.775Z" fill="#BF7759"/>
<path d="M199.57 284.331L199.008 291.686L196.613 291.252L197.322 283.735L199.57 284.331Z" fill="#BF7759"/>
<path d="M190.873 283.249L190.069 291.07L187.51 291.02L188.293 282.832L190.873 283.249Z" fill="#BF7759"/>
<path d="M183.22 282.507L182.103 289.818L179.629 289.268L180.62 281.724L183.22 282.507Z" fill="#BF7759"/>
<path d="M170.656 207.486C170.656 207.486 189.208 210.577 189.92 210.87C190.633 211.163 216.985 216.758 216.985 216.758L220.25 217.198C223.632 217.653 226.43 220.817 227.241 225.106L230.176 240.633C230.176 240.633 225.426 245.713 220.046 246.099L221.653 274.353C221.653 274.353 183.43 271.331 180.532 270.163L183.01 236.228C183.01 236.228 178.896 234.887 167.148 231.495C167.148 231.495 165.808 217.725 170.656 207.486Z" fill="white"/>
<path d="M189.375 157.898C189.375 157.898 182.485 157.211 181.775 155.662C181.063 154.113 184.698 141.363 205.896 141.756C227.095 142.149 224.748 181.194 224.748 181.194L222.464 240.028C222.464 240.028 200.679 246.587 182.155 233.267L189.375 157.898Z" fill="#A3D2F4"/>
<path d="M179.665 165.259C179.665 165.259 202.879 163.643 204.844 165.909C206.809 168.174 207.105 172.425 204.748 171.809C202.391 171.194 205.825 167.007 202.16 167.148C198.496 167.289 178.82 167.109 178.82 167.109L179.665 165.259Z" fill="#EF8A62"/>
<path d="M190.285 168.217C190.285 168.217 191.886 164.285 195.653 165.738C199.42 167.192 197.473 184.43 190.158 180.222L190.285 168.217Z" fill="#F2CBB6"/>
<path d="M140.748 181.147C140.748 181.147 136.534 169.327 137.68 167.466C137.857 167.178 139.118 167.322 139.392 166.917C139.718 166.434 140.007 165.965 140.249 165.834C141.118 165.361 141.826 166.245 141.826 166.245C141.826 166.245 142.615 164.737 143.188 164.808C143.761 164.879 144.372 165.417 144.372 165.417C144.372 165.417 144.085 155.468 145.661 154.911C147.238 154.353 147.471 167.693 147.471 167.693C147.471 167.693 149.352 168.319 149.352 169.367C149.352 170.415 150.058 175.938 147.043 180.2C144.966 183.133 140.748 181.147 140.748 181.147Z" fill="#F2CBB6"/>
<path d="M105.023 131.988L102.816 145.334H104.646L106.745 131.988" fill="white"/>
<path d="M109.918 131.988L107.713 145.334H109.542L111.64 131.988" fill="white"/>
<path d="M115.701 133.524H113.684V136.145H115.701V133.524Z" fill="white"/>
<path d="M115.701 141.352H113.684V143.972H115.701V141.352Z" fill="white"/>
<path d="M193.206 112.984C193.206 110.802 191.843 109.032 190.162 109.032C188.482 109.032 187.119 110.802 187.119 112.984C187.119 115.166 188.482 116.936 190.162 116.936C191.843 116.936 193.206 115.166 193.206 112.984Z" fill="#F4CA60"/>
<path d="M184.008 112.984C184.008 110.802 182.646 109.032 180.965 109.032C179.285 109.032 177.922 110.802 177.922 112.984C177.922 115.166 179.285 116.936 180.965 116.936C182.646 116.936 184.008 115.166 184.008 112.984Z" fill="#EF8A62"/>
<path d="M174.809 112.984C174.809 110.802 173.446 109.032 171.766 109.032C170.085 109.032 168.723 110.802 168.723 112.984C168.723 115.166 170.085 116.936 171.766 116.936C173.446 116.936 174.809 115.166 174.809 112.984Z" fill="#CCED98"/>
<path d="M301.361 215.847C301.361 215.847 245.064 211.295 242.97 204.795C240.876 198.294 237.21 199.176 228.486 153.517L242.443 150.798C242.443 150.798 259.143 185.222 261 185.907C262.859 186.593 304.857 168.088 315.434 168.726C326.01 169.364 309.387 216.579 301.361 215.847Z" fill="#C8A34C"/>
<path opacity="0.2" d="M312.687 464.662C373.612 464.662 423.001 460.839 423.001 456.122C423.001 451.405 373.612 447.581 312.687 447.581C251.762 447.581 202.373 451.405 202.373 456.122C202.373 460.839 251.762 464.662 312.687 464.662Z" fill="#383838"/>
<path d="M375.188 437.464C375.188 437.464 380.233 455.797 378.971 456.503C377.71 457.208 318.168 457.913 315.899 456.503C313.629 455.092 315.597 446.161 347.536 437.464C347.536 437.464 366.357 431.823 375.188 437.464Z" fill="#A3D2F4"/>
<mask id="mask2_3546_7610" style="mask-type:luminance" maskUnits="userSpaceOnUse" x="315" y="434" width="65" height="24">
<path d="M375.196 437.462C375.196 437.462 380.241 455.795 378.979 456.501C377.718 457.206 318.176 457.911 315.907 456.501C313.637 455.09 315.605 446.159 347.544 437.462C347.545 437.462 366.365 431.821 375.196 437.462Z" fill="white"/>
</mask>
<g mask="url(#mask2_3546_7610)">
<path d="M324.559 443.527C324.823 443.527 335.402 443.445 339.545 450.754H367.224C367.224 450.754 372.159 441.392 382.738 445.252C393.316 449.112 387.321 463.565 387.321 463.565L310.719 458.72L315.919 444.02L324.559 443.527Z" fill="white"/>
</g>
<path d="M372.038 418.763L373.365 438.482C373.365 438.482 365.815 442.546 355.974 438.305L355.146 418.764H372.038V418.763Z" fill="#E29D7F"/>
<path d="M304.499 437.465C304.499 437.465 309.545 455.798 308.284 456.504C307.023 457.209 247.481 457.914 245.212 456.504C242.941 455.093 244.91 446.162 276.849 437.465C276.849 437.465 295.669 431.824 304.499 437.465Z" fill="#A3D2F4"/>
<mask id="mask3_3546_7610" style="mask-type:luminance" maskUnits="userSpaceOnUse" x="244" y="434" width="65" height="24">
<path d="M304.499 437.463C304.499 437.463 309.545 455.796 308.284 456.502C307.023 457.207 247.481 457.912 245.212 456.502C242.941 455.091 244.91 446.16 276.849 437.463C276.849 437.463 295.669 431.822 304.499 437.463Z" fill="white"/>
</mask>
<g mask="url(#mask3_3546_7610)">
<path d="M253.859 443.528C254.124 443.528 264.702 443.446 268.846 450.755H296.524C296.524 450.755 301.46 441.393 312.038 445.253C322.616 449.113 316.622 463.566 316.622 463.566L240.02 458.721L245.22 444.021L253.859 443.528Z" fill="white"/>
</g>
<path d="M303.049 420.081L301.372 437.973C301.372 437.973 292.049 441.25 284.973 437.431L286.351 417.698L303.049 420.081Z" fill="#E29D7F"/>
<path d="M307.704 426.275C307.704 426.275 307.217 434.762 304.825 435.521C302.432 436.28 300.522 435.585 297.484 435.63C294.446 435.676 288.495 435.557 285.827 435.079C283.161 434.602 281.881 433.794 283.26 425.604C284.638 417.416 307.704 426.275 307.704 426.275Z" fill="#D9D9D9"/>
<path d="M374.186 434.574C374.37 436.051 372.755 436.663 371.865 436.894C369.913 437.4 366.013 437.432 363.998 437.632C360.417 437.989 359.67 436.756 356.088 437.113C355.529 437.168 352.308 437.209 351.782 437.023C350.709 436.644 351.481 436.52 351.263 435.47C351.02 434.307 350.384 433.057 350.303 431.875C350.293 431.726 350.284 431.573 350.329 431.429C350.415 431.151 350.68 430.959 350.934 430.796C353.407 429.219 356.43 428.602 359.39 428.167C361.697 427.828 364.038 427.579 366.365 427.771C368.522 427.948 370.902 428.536 372.681 429.742C373.333 430.183 374.512 429.42 374.583 430.144C374.684 431.184 374.049 433.481 374.186 434.574Z" fill="#D9D9D9"/>
<path d="M378.685 294.898C378.685 294.898 378.828 361.698 379.743 363.148C380.42 364.219 381.021 407.958 381.289 422.361C381.379 427.218 377.455 431.317 372.266 431.8C365.768 432.406 357.133 433.129 350.906 433.35C347.35 433.475 344.284 431.053 343.82 427.766L332.435 319.557C332.435 319.557 324.778 318.35 323.939 318.35C323.22 318.35 314.157 407.154 311.59 425.279C311.203 428.005 308.682 430.014 305.732 429.95C296.729 429.754 288.422 432.518 279.006 426.458C269.085 420.073 291.988 278.496 291.988 278.496L378.685 294.898Z" fill="white"/>
<path d="M376.418 299.888C376.418 299.888 378.268 321.414 376.418 322.711C374.567 324.008 360.866 318.302 356.163 315.708C351.461 313.114 348.955 286.839 348.955 286.839L376.418 299.888Z" fill="#D9D9D9"/>
<path d="M306.917 281.992C306.917 281.992 300.792 316.227 298.009 318.301C295.225 320.376 287.496 320.004 287.496 320.004L293.276 281.992H306.917Z" fill="#D9D9D9"/>
<path d="M330.019 292.28C330.019 292.28 331.657 314.495 331.119 315.33C330.582 316.164 323.769 314.828 323.409 313.994C323.051 313.159 323.409 289.189 323.409 289.189L330.019 292.28Z" fill="#D9D9D9"/>
<path d="M355.814 151.549C355.814 151.549 354.584 166.821 355.814 167.202C357.044 167.584 372.003 177.129 372.003 177.129L343.93 185.911L316.267 181.52L315.447 168.73C315.447 168.73 328.767 163.957 329.586 163.767C330.406 163.575 332.66 150.595 332.66 150.595L355.814 151.549Z" fill="#C48B71"/>
<path d="M368.932 114.896C368.932 114.896 364.014 150.402 359.301 153.457C354.588 156.512 321.597 163.384 317.294 154.411C312.991 145.439 313.811 100.196 316.474 98.0967C319.138 95.9971 355.407 96.5693 355.407 96.5693L368.932 114.896Z" fill="#E29D7F"/>
<path d="M345.98 126.868C345.98 129.358 346.99 131.376 348.234 131.376C349.479 131.376 350.488 129.358 350.488 126.868C350.488 124.379 349.479 122.36 348.234 122.36C346.99 122.36 345.98 124.379 345.98 126.868Z" fill="#32241B"/>
<path d="M320.871 126.868C320.871 129.358 321.88 131.376 323.125 131.376C324.369 131.376 325.379 129.358 325.379 126.868C325.379 124.379 324.369 122.36 323.125 122.36C321.88 122.36 320.871 124.379 320.871 126.868Z" fill="#32241B"/>
<path d="M332.27 150.431C334.411 153.435 339.51 153.79 343.658 151.222C347.806 148.656 349.432 144.14 347.29 141.136C345.148 138.132 343.383 142.454 339.236 145.02C335.088 147.587 330.128 147.427 332.27 150.431Z" fill="white"/>
<g opacity="0.5">
<path d="M333.994 119.381C334.108 121.82 334.239 124.306 333.757 126.721C333.525 127.878 333.193 129.118 332.518 130.126C331.87 131.097 330.771 131.655 330.012 132.539C328.837 133.91 328.347 135.813 329.5 137.333C330.773 139.011 333.01 139.342 335.054 139.522C335.956 139.601 335.95 138.288 335.054 138.21C333.213 138.048 330.196 137.591 330.23 135.309C330.261 133.289 332.594 132.416 333.637 130.925C335.923 127.665 335.573 123.08 335.401 119.381C335.363 118.541 333.955 118.536 333.994 119.381Z" fill="#E29D7F"/>
</g>
<path d="M372.005 121.577C372.005 121.577 378.768 117.187 380.407 121.577C382.047 125.968 375.855 138.594 368.932 132.458L372.005 121.577Z" fill="#C48B71"/>
<path d="M298.69 204.796C298.69 204.796 277.768 294.405 282.686 296.514C287.606 298.624 377.986 302.728 380.652 300.094C383.318 297.46 398.551 179.068 368.327 174.434C368.327 174.434 334.212 184.854 315.429 168.728C315.429 168.728 302.048 178.981 298.69 204.796Z" fill="#F4CA60"/>
<path d="M364.869 137.844C364.869 137.844 363.682 118.544 362.494 113.96C361.306 109.376 351.125 108.111 352.483 99.8914C352.483 99.8914 344.912 109.059 335.038 105.108C325.165 101.156 332.273 99.2584 332.273 99.2584C332.273 99.2584 322.01 109.059 314.254 106.371C306.499 103.684 312.099 99.2584 312.099 99.2584C312.099 99.2584 297.677 95.1487 302.258 86.2962C306.84 77.4437 312.609 81.8699 312.609 81.8699C312.609 81.8699 307.379 64.166 320.853 63.0595C334.328 61.9529 335.925 76.6536 335.925 76.6536C335.925 76.6536 342.525 67.9593 350.474 72.8603C358.422 77.7601 356.896 83.1347 356.896 83.1347C356.896 83.1347 378.087 82.3446 374.787 97.9936C374.787 97.9936 389.304 96.5706 373.694 123.443C373.694 123.443 373.692 141.02 364.869 137.844Z" fill="#735546"/>
<path d="M210.385 142.357V139.521L270.305 153.788L323.104 176.511V179.673L264.051 182.587L210.385 142.357Z" fill="#383838"/>
<path d="M323.104 176.511L264.672 179.047L210.385 139.521L269.741 140.793L323.104 176.511Z" fill="#222220"/>
<path d="M260.195 142.285L304.919 174.588H313.731L267.539 142.285H260.195Z" fill="#383838"/>
<path d="M257.77 142.285L258.529 142.865L300.069 174.588L290.239 174.642L251.16 143.894L257.77 142.285Z" fill="#383838"/>
<path d="M249.509 145.397L286.081 174.642L276.497 174.588L243.23 146.521L249.509 145.397Z" fill="#383838"/>
<path d="M254.799 160.02L270.111 175.125H261.298L247.529 161.818L254.799 160.02Z" fill="#383838"/>
<path d="M264.054 182.587L255.099 108.925L199.395 75.2939L210.388 142.357L264.054 182.587Z" fill="#383838"/>
<path d="M269.746 182.307C269.746 182.307 275.075 188.405 288.448 193.674C301.82 198.943 301.361 192.3 301.361 192.3V188.758C301.361 188.758 303.48 175.096 298.696 172.501C293.912 169.905 287.382 172.616 296.238 177.706C296.238 177.706 295.075 182.916 292.981 182.587C290.888 182.257 284.166 181.595 284.166 181.595" fill="#E29D7F"/>
<path d="M288.449 193.673C288.449 193.673 301.159 234.226 320.856 244.566C350.476 260.115 392.411 222.06 385.545 194.173C378.679 166.288 364.785 173.881 365.416 175.201C365.416 175.201 338.366 218.989 334.219 217.966C334.219 217.966 303.775 190.683 301.362 188.757L288.449 193.673Z" fill="#E8BA52"/>
<path d="M348.517 10.3015C348.517 10.3015 345.354 50.2978 348.821 62.7729C352.289 75.248 391.359 69.4998 396.6 65.9532C401.841 62.4066 399.651 6.66976 397.27 3.73462C394.886 0.799482 353.559 -5.47706 348.517 10.3015Z" fill="white"/>
<path d="M361.343 60.5713C359.199 66.4426 348.822 86.8029 348.822 86.8029L378.972 64.241L361.343 60.5713Z" fill="white"/>
<path d="M368.4 19.3936L361.414 34.0744L369.406 49.9658L371.504 47.6093L364.573 34.0836L370.999 21.9491L368.4 19.3936Z" fill="#A3D2F4"/>
<path d="M377.365 21.9417L385.991 33.1355L379.069 47.764L380.395 50.2651L389.147 32.6184L378.446 19.0322L377.365 21.9417Z" fill="#A3D2F4"/>
</svg>
