<svg width="750" height="500" viewBox="0 0 750 500" fill="none" xmlns="http://www.w3.org/2000/svg">
<path opacity="0.2" d="M149.569 454.559C199.066 454.559 239.191 451.225 239.191 447.111C239.191 442.998 199.066 439.663 149.569 439.663C100.072 439.663 59.9473 442.998 59.9473 447.111C59.9473 451.225 100.072 454.559 149.569 454.559Z" fill="#383838"/>
<path d="M98.7998 430.84C98.7998 430.84 94.7008 446.828 95.7248 447.443C96.7498 448.058 145.123 448.673 146.967 447.443C148.812 446.213 147.212 438.424 121.264 430.84C121.264 430.84 105.974 425.921 98.7998 430.84Z" fill="#F4CA60"/>
<mask id="mask0_3546_7330" style="mask-type:luminance" maskUnits="userSpaceOnUse" x="95" y="428" width="53" height="21">
<path d="M98.7998 430.84C98.7998 430.84 94.7008 446.828 95.7248 447.443C96.7498 448.058 145.123 448.673 146.967 447.443C148.812 446.213 147.212 438.424 121.264 430.84C121.265 430.84 105.974 425.921 98.7998 430.84Z" fill="white"/>
</mask>
<g mask="url(#mask0_3546_7330)">
<path d="M139.941 436.128C139.726 436.128 131.132 436.056 127.766 442.43H105.279C105.279 442.43 101.268 434.266 92.6746 437.632C84.0806 440.998 88.9506 453.602 88.9506 453.602L151.185 449.377L146.96 436.558L139.941 436.128Z" fill="white"/>
</g>
<path d="M101.359 414.529L100.281 431.726C100.281 431.726 106.415 435.27 114.41 431.571L115.082 414.53H101.359V414.529Z" fill="#735546"/>
<path d="M156.226 430.84C156.226 430.84 152.127 446.828 153.151 447.443C154.176 448.058 202.549 448.673 204.394 447.443C206.239 446.213 204.639 438.424 178.69 430.84C178.69 430.84 163.4 425.921 156.226 430.84Z" fill="#F4CA60"/>
<mask id="mask1_3546_7330" style="mask-type:luminance" maskUnits="userSpaceOnUse" x="152" y="428" width="53" height="21">
<path d="M156.226 430.84C156.226 430.84 152.127 446.828 153.151 447.443C154.176 448.058 202.549 448.673 204.394 447.443C206.239 446.213 204.639 438.424 178.69 430.84C178.69 430.84 163.4 425.921 156.226 430.84Z" fill="white"/>
</mask>
<g mask="url(#mask1_3546_7330)">
<path d="M197.366 436.128C197.151 436.128 188.557 436.056 185.191 442.43H162.704C162.704 442.43 158.694 434.266 150.1 437.632C141.506 440.998 146.376 453.602 146.376 453.602L208.61 449.377L204.385 436.558L197.366 436.128Z" fill="white"/>
</g>
<path d="M157.404 415.68L158.767 431.283C158.767 431.283 166.341 434.141 172.09 430.81L170.97 413.602L157.404 415.68Z" fill="#735546"/>
<path d="M153.621 409.08C153.621 409.08 154.017 416.481 155.96 417.143C157.903 417.805 159.456 417.199 161.924 417.238C164.392 417.277 169.227 417.174 171.394 416.758C173.561 416.342 174.6 415.637 173.48 408.495C172.36 401.353 153.621 409.08 153.621 409.08Z" fill="#8CB1CC"/>
<path d="M99.6112 414.319C99.4612 415.607 100.773 416.141 101.496 416.342C103.082 416.783 106.251 416.811 107.888 416.986C110.797 417.297 112.612 417.194 115.521 417.505C115.975 417.554 117.209 417.596 117.636 417.434C118.508 417.103 118.056 416.017 118.234 415.101C118.431 414.087 118.948 412.997 119.014 411.966C119.022 411.836 119.029 411.703 118.993 411.577C118.923 411.335 118.708 411.167 118.501 411.025C116.492 409.65 114.036 409.112 111.631 408.733C109.757 408.437 107.855 408.22 105.965 408.387C104.212 408.542 102.278 409.054 100.833 410.106C100.304 410.491 99.3462 409.825 99.2882 410.457C99.2062 411.363 99.7222 413.366 99.6112 414.319Z" fill="#8CB1CC"/>
<path d="M95.9551 316.514C95.9551 316.514 95.8391 364.768 95.0951 366.032C94.5451 366.966 94.0571 391.11 93.8391 403.67C93.7661 407.906 96.9541 411.48 101.17 411.902C106.449 412.43 113.464 413.061 118.523 413.253C121.412 413.362 123.903 411.25 124.28 408.384L133.53 338.018C133.53 338.018 139.75 336.965 140.432 336.965C141.016 336.965 148.379 392.409 150.465 408.215C150.779 410.592 152.827 412.344 155.224 412.288C162.538 412.117 169.287 414.528 176.937 409.243C184.997 403.675 166.39 302.21 166.39 302.21L95.9551 316.514Z" fill="#A3D2F4"/>
<path d="M97.7989 320.864C97.7989 320.864 96.2959 339.636 97.7989 340.767C99.3029 341.898 110.434 336.922 114.255 334.66C118.075 332.398 120.111 309.484 120.111 309.484L97.7989 320.864Z" fill="#8CB1CC"/>
<path d="M154.262 305.258C154.262 305.258 159.238 335.113 161.5 336.922C163.762 338.731 167.607 338.731 167.607 338.731L165.345 305.257H154.262V305.258Z" fill="#8CB1CC"/>
<path d="M132.047 313.429C132.047 313.429 127.459 322.97 127.823 330.763C127.823 330.763 128.551 331.418 128.988 330.763C129.425 330.108 130.445 318.819 134.232 313.429C138.019 308.039 132.047 313.429 132.047 313.429Z" fill="white"/>
<path d="M145.793 313.429C145.793 313.429 150.381 322.97 150.017 330.763C150.017 330.763 149.289 331.418 148.852 330.763C148.415 330.108 147.395 318.819 143.608 313.429C139.82 308.039 145.793 313.429 145.793 313.429Z" fill="white"/>
<path d="M135.492 314.23C135.492 314.23 134.161 333.603 134.598 334.332C135.035 335.061 140.57 333.895 140.861 333.167C141.152 332.439 140.861 311.536 140.861 311.536L135.492 314.23Z" fill="#8CB1CC"/>
<path d="M107.114 182.708C106.586 182.792 106.156 183.159 105.72 183.468C103.2 185.251 99.5452 185.233 97.0422 183.426C94.5392 181.619 93.3732 178.155 94.2722 175.202C91.0882 175.69 87.7052 174.655 85.3392 172.468C82.9742 170.281 81.6772 166.989 81.9152 163.776C79.4042 163.751 76.4762 163.511 75.0952 161.414C74.3692 160.312 74.2572 158.929 74.1672 157.612C74.0372 155.716 73.9102 153.786 74.3552 151.939C74.7992 150.092 75.9122 148.307 77.6452 147.529C76.3082 143.171 74.9562 138.678 75.3652 134.138C75.7742 129.598 78.3802 124.944 82.7092 123.517C83.2762 123.33 83.9042 123.174 84.2752 122.705C84.5572 122.348 84.6332 121.873 84.6782 121.42C85.0122 118.086 84.2252 114.634 85.1532 111.414C86.0312 108.367 88.5022 105.828 91.5232 104.865C94.5452 103.903 98.0292 104.546 100.507 106.524C101.885 103.9 104.079 101.52 106.946 100.769C109.814 100.018 113.325 101.397 114.235 104.218C116.307 100.97 119.79 98.3086 123.64 98.4266C127.491 98.5436 131.165 102.361 130.148 106.077C133.186 104.066 136.801 102.402 140.374 103.114C143.947 103.826 146.942 107.89 145.349 111.168C148.61 110.355 151.982 109.537 155.297 110.085C158.612 110.633 161.883 112.92 162.492 116.225C163.076 119.39 161.171 122.425 159.355 125.082C163.059 126.593 165.966 129.929 166.958 133.805C167.95 137.681 167.002 142.003 164.479 145.107C164.149 145.513 163.774 145.953 163.79 146.476C163.803 146.896 164.068 147.259 164.311 147.601C165.805 149.71 166.84 152.264 166.61 154.838C166.38 157.413 164.658 159.944 162.155 160.589C163.112 161.374 163.728 162.65 163.485 163.864C163.243 165.078 161.993 166.077 160.782 165.823C162.683 167.077 162.897 170.058 161.518 171.871C160.139 173.683 157.61 174.351 155.368 173.957C155.88 176.297 156.077 179.364 153.943 180.454C153.252 180.807 152.447 180.85 151.672 180.839C149.043 180.803 146.455 180.234 143.865 179.783C136.504 178.501 128.729 177.97 121.284 178.81C119.026 179.065 117.435 179.764 115.602 181.077C114.417 181.927 113.304 182.951 111.85 183.304C110.081 183.733 108.718 182.454 107.114 182.708Z" fill="#222220"/>
<path d="M161.314 152.84H147.334L147.643 153.738C147.643 153.738 161.561 154.655 161.551 154.523C161.542 154.391 161.314 152.84 161.314 152.84Z" fill="#D66156"/>
<path d="M114.539 181.5C114.539 181.5 115.538 194.818 114.539 195.151C113.54 195.484 101.387 203.808 101.387 203.808L124.194 211.466L146.668 207.637L147.334 196.483C147.334 196.483 136.513 192.321 135.847 192.155C135.181 191.988 133.35 180.668 133.35 180.668L114.539 181.5Z" fill="#684D3F"/>
<path d="M103.883 149.535C103.883 149.535 107.878 180.499 111.707 183.163C115.536 185.827 142.339 191.82 145.835 183.995C149.331 176.171 148.665 136.716 146.501 134.885C144.337 133.054 114.871 133.553 114.871 133.553L103.883 149.535Z" fill="#735546"/>
<path d="M155.328 140.094C154.972 137.638 154.445 135.114 152.986 133.105C150.685 129.935 146.595 128.704 142.767 127.875C134.881 126.167 126.787 125.313 118.728 125.706C115.812 125.848 112.833 126.172 110.204 127.444C105.505 129.717 102.689 134.608 100.67 139.422C98.2597 145.167 96.6107 151.88 99.3187 157.491C100.747 160.45 103.321 162.933 103.834 166.178C104.024 167.379 103.915 168.629 104.264 169.794C104.612 170.959 105.642 172.073 106.85 171.931C108.259 171.766 108.922 170.14 109.292 168.771C109.464 168.135 109.636 167.471 109.51 166.824C109.385 166.177 108.867 165.555 108.209 165.541C110.018 163.618 110.373 161.034 109.186 158.771C108.057 156.618 108.191 155.876 108.426 153.43C109.641 153.233 110.401 154.627 111.648 154.516C112.842 154.41 113.675 153.127 114.086 152.126C114.676 150.685 115.016 149.141 115.084 147.584C117.286 147.275 119.655 148.504 121.677 147.581C122.933 147.008 123.726 145.698 124.025 144.35C124.324 143.003 124.202 141.602 124.079 140.227C125.643 139.619 127.319 141.066 128.986 140.878C130.676 140.687 131.692 138.962 132.44 137.435C134.352 138.743 136.741 139.337 139.042 139.077C138.533 140.837 139.27 142.884 140.785 143.915C142.3 144.946 144.475 144.88 145.925 143.76C146.24 145.199 146.803 146.583 147.584 147.831C149.644 148.259 151.996 148.551 153.67 147.276C155.726 145.712 155.698 142.65 155.328 140.094Z" fill="#222220"/>
<path d="M122.529 159.977C122.529 162.148 121.709 163.908 120.698 163.908C119.687 163.908 118.867 162.148 118.867 159.977C118.867 157.806 119.687 156.046 120.698 156.046C121.709 156.046 122.529 157.806 122.529 159.977Z" fill="#222220"/>
<path d="M144.094 159.977C144.094 162.148 143.274 163.908 142.263 163.908C141.252 163.908 140.432 162.148 140.432 159.977C140.432 157.806 141.252 156.046 142.263 156.046C143.274 156.046 144.094 157.806 144.094 159.977Z" fill="#222220"/>
<path d="M138.011 176.134C138.011 179.279 134.732 181.828 130.686 181.828C126.641 181.828 123.361 179.279 123.361 176.134C123.361 172.989 126.641 175.336 130.686 175.336C134.731 175.336 138.011 172.99 138.011 176.134Z" fill="white"/>
<path d="M131.123 153.446C130.983 156.671 130.7 160.67 132.556 163.513C133.4 164.805 135.118 165.48 135.306 167.168C135.54 169.266 132.929 169.723 131.405 169.866C130.678 169.934 130.671 171.079 131.405 171.01C133.023 170.858 134.8 170.586 135.847 169.198C136.858 167.857 136.489 166.161 135.502 164.921C134.918 164.187 134.067 163.72 133.544 162.935C132.97 162.074 132.69 161.002 132.491 159.998C132.064 157.846 132.173 155.624 132.267 153.445C132.299 152.71 131.155 152.711 131.123 153.446Z" fill="#5B3F30"/>
<path d="M161.576 155.347C161.576 147.481 155.199 146.868 147.333 146.868C139.467 146.868 133.09 147.481 133.09 155.347C133.09 163.213 139.467 169.59 147.333 169.59C155.199 169.59 161.576 163.213 161.576 155.347Z" stroke="#D66156" stroke-width="1.3728" stroke-miterlimit="10"/>
<path d="M84.6238 159.51C85.3268 159.281 85.7138 158.529 85.6258 157.795C85.5358 157.045 85.2898 155.543 85.7738 155.297C87.3918 154.474 87.9968 154.305 101.562 154.201L101.805 152.71C101.805 152.71 85.3218 153.332 84.8008 154.55C83.5298 157.515 83.7298 159.801 84.6238 159.51Z" fill="#D66156"/>
<path d="M101.386 155.363C101.386 155.363 95.892 151.534 94.56 155.363C93.228 159.192 98.2581 170.203 103.883 164.852L101.386 155.363Z" fill="#735546"/>
<path d="M129.996 155.347C129.996 147.481 123.619 146.868 115.753 146.868C107.887 146.868 101.51 147.481 101.51 155.347C101.51 163.213 107.887 169.59 115.753 169.59C123.619 169.59 129.996 163.213 129.996 155.347Z" stroke="#D66156" stroke-width="1.3728" stroke-miterlimit="10"/>
<path d="M129.994 155.133C129.994 155.133 131.69 154.17 132.819 155.133V153.687L129.994 153.871V155.133Z" fill="#D66156"/>
<path d="M106.919 200.053C106.919 200.053 112.719 209.237 128.67 206.774C144.621 204.312 145.527 195.789 145.527 195.789C145.527 195.789 166.887 186.716 182.088 211.465C197.289 236.214 195.148 291.238 195.148 291.238L94.8374 276.923L77.2344 209.78C77.2344 209.78 89.7344 202.654 106.919 200.053Z" fill="white"/>
<path d="M132.107 219.602C156.623 216.891 164.509 204.543 167.047 196.951C164.881 195.901 162.758 195.209 160.738 194.778C157.753 201.169 150.282 210.196 131.588 213.722C108.778 218.023 96.1884 208.672 91.3684 203.803C89.1744 204.528 87.1865 205.268 85.4395 205.97C92.0695 212.278 106.903 222.389 132.107 219.602Z" fill="#A3D2F4"/>
<path d="M81.2526 225.105C94.6246 230.454 111.029 233.345 131.415 234.649C153.668 236.072 173.013 219.012 181.35 210.325C180.048 208.322 178.707 206.547 177.34 204.992C171.813 213.803 159.069 227.492 132.452 229.806C108.858 231.858 90.6196 225.022 79.6836 219.121L81.2526 225.105Z" fill="#EF8A62"/>
<path d="M102.186 243.815V237.07L83.4668 233.557L85.2798 240.468L102.186 243.815Z" fill="#A3D2F4"/>
<path d="M95.0953 251.771V245.718H86.6562L88.2433 251.771H95.0953Z" fill="#EF8A62"/>
<path d="M95.095 257.131L89.834 257.837L90.928 262.013L95.095 260.936V257.131Z" fill="#A3D2F4"/>
<path d="M95.0963 265.476C94.1053 265.643 93.0792 265.9 92.0312 266.216L93.6693 272.464C95.9923 271.478 97.3443 271.055 97.3443 271.055C97.3443 271.055 112.737 262.493 95.0963 265.476Z" fill="#EF8A62"/>
<path d="M86.3809 216.49L102.187 319.565L224.761 304.486L212.353 200.752L86.3809 216.49Z" fill="#383838"/>
<path d="M92.8281 230.407L105.358 314.713L221.193 301.396L210.676 215.66L92.8281 230.407Z" fill="#222220"/>
<path d="M200.753 210.434C200.675 212.298 199.101 213.746 197.237 213.668C195.373 213.59 193.925 212.016 194.003 210.152C194.081 208.288 195.655 206.84 197.519 206.918C199.383 206.995 200.831 208.57 200.753 210.434Z" fill="#EF8A62"/>
<path d="M209.337 209.579C209.259 211.443 207.685 212.891 205.821 212.813C203.957 212.735 202.509 211.161 202.587 209.297C202.665 207.433 204.239 205.985 206.103 206.063C207.967 206.141 209.415 207.715 209.337 209.579Z" fill="#F4CA60"/>
<path d="M191.855 211.21C191.777 213.074 190.203 214.522 188.339 214.444C186.475 214.366 185.027 212.792 185.105 210.928C185.183 209.064 186.757 207.616 188.621 207.694C190.485 207.772 191.933 209.346 191.855 211.21Z" fill="#CCED98"/>
<path d="M120.852 249.681L110.812 250.934L111.112 253.338L121.152 252.085L120.852 249.681Z" fill="#CCED98"/>
<path d="M128.963 248.668L122.33 249.495L122.63 251.899L129.263 251.072L128.963 248.668Z" fill="#F4CA60"/>
<path d="M140.681 251.277L115.561 254.411L115.861 256.815L140.981 253.681L140.681 251.277Z" fill="white"/>
<path d="M160.969 248.746L141.898 251.125L142.198 253.529L161.269 251.15L160.969 248.746Z" fill="white"/>
<path d="M165.217 248.217L162.135 248.602L162.435 251.006L165.517 250.621L165.217 248.217Z" fill="#CCED98"/>
<path d="M121.855 257.694L116.062 258.417L116.362 260.821L122.155 260.099L121.855 257.694Z" fill="#CCED98"/>
<path d="M119.728 262.029L113.936 262.752L114.236 265.156L120.028 264.434L119.728 262.029Z" fill="#EF8A62"/>
<path d="M120.952 271.849L115.16 272.571L115.46 274.976L121.252 274.253L120.952 271.849Z" fill="#EF8A62"/>
<path d="M141.54 263.38L119.145 266.174L119.444 268.578L141.84 265.784L141.54 263.38Z" fill="white"/>
<path d="M183.397 258.157L178.918 258.716L179.218 261.12L183.697 260.561L183.397 258.157Z" fill="#CCED98"/>
<path d="M178.223 258.803L142.18 263.3L142.48 265.704L178.523 261.207L178.223 258.803Z" fill="white"/>
<path d="M142.928 274.499L120.533 277.293L120.833 279.697L143.228 276.903L142.928 274.499Z" fill="white"/>
<path d="M184.784 269.278L180.305 269.837L180.605 272.241L185.084 271.682L184.784 269.278Z" fill="#F4CA60"/>
<path d="M179.61 269.923L143.566 274.42L143.866 276.824L179.91 272.327L179.61 269.923Z" fill="white"/>
<path d="M135.819 279.763L124.312 281.198L124.612 283.603L136.119 282.167L135.819 279.763Z" fill="#EF8A62"/>
<path d="M188.565 273.181L184.086 273.74L184.386 276.145L188.865 275.586L188.565 273.181Z" fill="#CCED98"/>
<path d="M179.147 278.727L174.668 279.286L174.968 281.69L179.447 281.132L179.147 278.727Z" fill="#CCED98"/>
<path d="M196.971 289.633L192.492 290.191L192.792 292.596L197.271 292.037L196.971 289.633Z" fill="#F4CA60"/>
<path d="M183.392 273.826L136.293 279.702L136.593 282.106L183.692 276.23L183.392 273.826Z" fill="white"/>
<path d="M142.349 283.321L130.842 284.757L131.142 287.161L142.648 285.726L142.349 283.321Z" fill="#EF8A62"/>
<path d="M173.734 279.406L142.818 283.263L143.118 285.667L174.034 281.81L173.734 279.406Z" fill="white"/>
<path d="M148.874 286.883L137.367 288.318L137.667 290.723L149.174 289.287L148.874 286.883Z" fill="#EF8A62"/>
<path d="M196.445 280.948L149.346 286.824L149.646 289.229L196.745 283.352L196.445 280.948Z" fill="white"/>
<path d="M155.401 290.442L143.895 291.878L144.194 294.282L155.701 292.847L155.401 290.442Z" fill="#EF8A62"/>
<path d="M202.973 284.51L155.873 290.386L156.173 292.79L203.273 286.914L202.973 284.51Z" fill="white"/>
<path d="M155.938 294.751L144.432 296.187L144.732 298.591L156.238 297.155L155.938 294.751Z" fill="#EF8A62"/>
<path d="M191.531 290.311L156.41 294.692L156.71 297.097L191.831 292.715L191.531 290.311Z" fill="white"/>
<path d="M161.469 252.753L123.328 257.512L123.628 259.916L161.769 255.158L161.469 252.753Z" fill="white"/>
<path d="M165.717 252.223L162.635 252.607L162.935 255.012L166.017 254.627L165.717 252.223Z" fill="#CCED98"/>
<path d="M107.443 234.45C107.443 234.45 108.648 246.958 109.001 246.95C109.686 246.936 127.509 244.432 127.509 244.432L125.599 231.777L107.443 234.45Z" fill="#EF8A62"/>
<path d="M113.433 234.944L110.807 240.649L115.993 244.826L116.923 243.806L112.453 240.316L114.962 235.532L113.433 234.944Z" fill="white"/>
<path d="M117.08 235.179L122.413 238.395L119.746 243.728L120.609 244.433L124.021 237.885L117.442 234.082L117.08 235.179Z" fill="white"/>
<path d="M99.0684 322.897C99.0684 322.897 104.581 328.414 106.56 328.23C108.539 328.046 109.367 326.115 109.367 326.115C109.367 326.115 113.346 326.942 114.253 326.391C115.16 325.839 114.834 323.081 115.181 322.897C115.528 322.713 116.639 323.027 118.294 322.567C119.949 322.107 119.517 319.291 119.793 319.199C120.069 319.107 124.242 318.75 124.139 317.021C123.844 312.054 117.944 310.851 114.253 309.564C110.562 308.276 99.0684 322.897 99.0684 322.897Z" fill="#735546"/>
<path d="M91.6426 318.873C91.6426 318.873 94.4456 324.753 97.7966 324.753C101.148 324.753 115.849 312.474 115.157 307.631C114.465 302.789 108.066 300.367 108.066 300.367L91.6426 318.873Z" fill="#EF8A62"/>
<path d="M85.0213 206.869C85.0213 206.869 63.7923 210.609 53.5883 238.453C43.3843 266.297 43.2113 281.343 57.9123 298.119C72.6123 314.895 73.6503 314.203 80.5683 321.639C87.4863 329.076 101.494 314.721 103.916 311.262C106.337 307.803 117.925 300.265 113.082 291.236C108.24 282.207 97.7753 280.573 95.6573 274.127C93.5393 267.681 85.0213 206.869 85.0213 206.869Z" fill="white"/>
<path d="M71.0215 213.728C69.5825 214.796 68.1225 216.095 66.6445 217.52C72.8465 221.667 79.9805 224.956 88.0025 227.508C87.7655 225.878 87.5355 224.295 87.3175 222.784C79.7595 219.58 74.1505 215.979 71.0215 213.728Z" fill="#EF8A62"/>
<path d="M90.0585 241.413C89.7155 239.131 89.3755 236.848 89.0435 234.602L58.0675 228.787C57.0565 230.547 56.0945 232.456 55.1895 234.509L90.0585 241.413Z" fill="#A3D2F4"/>
<path d="M106.559 283.986C104.139 282.15 101.635 280.674 99.5994 279.085C86.5754 288.235 73.8494 303.771 68.8984 310.141C71.4834 312.791 73.2744 314.45 75.0094 316.082C84.8654 304.747 99.5904 290.571 106.559 283.986Z" fill="#A3D2F4"/>
<path d="M91.6422 251.771C91.3342 249.798 91.0222 247.771 90.7092 245.718H51.0662C50.3852 247.811 49.7792 249.823 49.2402 251.771H91.6422Z" fill="#EF8A62"/>
<path d="M92.5461 257.474L46.7721 263.618C46.3361 267.107 46.2371 270.376 46.4921 273.495L93.1931 261.428C92.9831 260.167 92.7671 258.846 92.5461 257.474Z" fill="#A3D2F4"/>
<path d="M93.9251 265.72C80.4071 268.745 61.6571 285.07 53.5801 292.591C54.8501 294.426 56.2851 296.262 57.9131 298.12C58.0261 298.249 58.1311 298.367 58.2421 298.494C73.3661 281.581 89.3231 274.162 95.0951 271.877C94.7631 270.34 94.3661 268.237 93.9251 265.72Z" fill="#EF8A62"/>
<path d="M85.0213 206.869C85.0213 206.869 63.7923 210.609 53.5883 238.453C43.3843 266.297 43.2113 281.343 57.9123 298.119C72.6123 314.895 73.6503 314.203 80.5683 321.639C87.4863 329.076 101.494 314.721 103.916 311.262C106.337 307.803 117.925 300.265 113.082 291.236C108.24 282.207 97.7753 280.573 95.6573 274.127C93.5393 267.681 85.0213 206.869 85.0213 206.869Z" fill="white"/>
<path d="M71.0215 213.728C69.5825 214.796 68.1225 216.095 66.6445 217.52C72.8465 221.667 79.9805 224.956 88.0025 227.508C87.7655 225.878 87.5355 224.295 87.3175 222.784C79.7595 219.58 74.1505 215.979 71.0215 213.728Z" fill="#EF8A62"/>
<path d="M90.0585 241.413C89.7155 239.131 89.3755 236.848 89.0435 234.602L58.0675 228.787C57.0565 230.547 56.0945 232.456 55.1895 234.509L90.0585 241.413Z" fill="#A3D2F4"/>
<path d="M106.559 283.986C104.139 282.15 101.635 280.674 99.5994 279.085C86.5754 288.235 73.8494 303.771 68.8984 310.141C71.4834 312.791 73.2744 314.45 75.0094 316.082C84.8654 304.747 99.5904 290.571 106.559 283.986Z" fill="#A3D2F4"/>
<path d="M91.6422 251.771C91.3342 249.798 91.0222 247.771 90.7092 245.718H51.0662C50.3852 247.811 49.7792 249.823 49.2402 251.771H91.6422Z" fill="#EF8A62"/>
<path d="M92.5461 257.474L46.7721 263.618C46.3361 267.107 46.2371 270.376 46.4921 273.495L93.1931 261.428C92.9831 260.167 92.7671 258.846 92.5461 257.474Z" fill="#A3D2F4"/>
<path d="M93.9251 265.72C80.4071 268.745 61.6571 285.07 53.5801 292.591C54.8501 294.426 56.2851 296.262 57.9131 298.12C58.0261 298.249 58.1311 298.367 58.2421 298.494C73.3661 281.581 89.3231 274.162 95.0951 271.877C94.7631 270.34 94.3661 268.237 93.9251 265.72Z" fill="#EF8A62"/>
<path d="M113.083 291.237C108.24 282.208 97.776 280.574 95.658 274.128C94.713 271.253 92.496 257.562 90.329 243.276C88.868 246.868 86.529 250.035 83.351 252.327C81.894 253.378 80.262 254.267 79.179 255.701C78.03 257.223 77.638 259.201 77.659 261.108C77.718 266.553 80.893 271.579 84.99 275.165C89.088 278.751 94.069 281.137 98.941 283.569C102.008 285.101 105.314 286.947 106.489 290.168C107.592 293.189 106.478 296.541 105.148 299.468C103.798 302.44 102.216 305.307 100.421 308.034C98.29 311.273 95.759 314.605 95.722 318.482C95.72 318.723 95.734 318.973 95.809 319.199C99.668 316.275 102.872 312.755 103.917 311.263C106.338 307.804 117.925 300.266 113.083 291.237Z" fill="#EEEEEE"/>
<path d="M216.977 230.408C216.977 230.408 220.644 226.665 216.759 223.717C214.889 222.298 203.075 224.078 204.66 227.459C206.245 230.84 215.213 227.987 216.977 230.408Z" fill="#735546"/>
<path d="M217.087 236.54C217.087 236.54 221.438 232.774 216.869 229.849C214.669 228.441 200.712 230.29 202.563 233.663C204.414 237.036 215.018 234.13 217.087 236.54Z" fill="#735546"/>
<path d="M217.605 243.146C217.605 243.146 221.272 239.403 217.387 236.455C215.517 235.036 203.703 236.816 205.288 240.197C206.873 243.579 215.84 240.726 217.605 243.146Z" fill="#735546"/>
<path d="M218.189 248.38C218.189 248.38 221.33 245.174 218.003 242.65C216.401 241.435 206.283 242.959 207.64 245.855C208.998 248.751 216.678 246.308 218.189 248.38Z" fill="#735546"/>
<path opacity="0.2" d="M387.458 453.643C436.955 453.643 477.08 450.309 477.08 446.195C477.08 442.082 436.955 438.747 387.458 438.747C337.961 438.747 297.836 442.082 297.836 446.195C297.836 450.309 337.961 453.643 387.458 453.643Z" fill="#383838"/>
<path d="M400.914 78.7002L395.512 284.351C395.512 284.351 253.101 285.116 250.646 284.351C248.191 283.586 246.014 78.7002 246.014 78.7002H400.914Z" fill="#383838"/>
<path d="M255.693 99.4502L259.11 275.627H388.51L391.959 99.4502H255.693Z" fill="#222220"/>
<path d="M294.871 132.592H287.883V136.17H294.871V132.592Z" fill="#A3D2F4"/>
<path d="M276.826 132.595H269.838V136.173H276.826V132.595Z" fill="white"/>
<path d="M276.828 140.018H269.84V143.596H276.828V140.018Z" fill="white"/>
<path d="M276.83 147.438H269.842V151.016H276.83V147.438Z" fill="white"/>
<path d="M276.83 154.859H269.842V158.437H276.83V154.859Z" fill="white"/>
<path d="M276.832 162.28H269.844V165.858H276.832V162.28Z" fill="white"/>
<path d="M276.834 169.701H269.846V173.279H276.834V169.701Z" fill="white"/>
<path d="M276.836 177.122H269.848V180.7H276.836V177.122Z" fill="white"/>
<path d="M276.836 184.543H269.848V188.121H276.836V184.543Z" fill="white"/>
<path d="M276.838 191.964H269.85V195.542H276.838V191.964Z" fill="white"/>
<path d="M276.84 199.385H269.852V202.963H276.84V199.385Z" fill="white"/>
<path d="M276.842 206.806H269.854V210.384H276.842V206.806Z" fill="white"/>
<path d="M276.841 214.228H269.854V217.806H276.841V214.228Z" fill="white"/>
<path d="M276.843 221.649H269.855V225.227H276.843V221.649Z" fill="white"/>
<path d="M276.845 229.07H269.857V232.648H276.845V229.07Z" fill="white"/>
<path d="M276.847 236.491H269.859V240.069H276.847V236.491Z" fill="white"/>
<path d="M276.847 243.912H269.859V247.49H276.847V243.912Z" fill="white"/>
<path d="M303.892 132.59H296.904V136.168H303.892V132.59Z" fill="#EF8A62"/>
<path d="M354.638 132.58H344.051V136.158H354.638V132.58Z" fill="#A3D2F4"/>
<path d="M342.017 132.585H305.928V136.163H342.017V132.585Z" fill="white"/>
<path d="M294.873 140.013H287.885V143.591H294.873V140.013Z" fill="#A3D2F4"/>
<path d="M348.694 140.005H313.23V143.583H348.694V140.005Z" fill="white"/>
<path d="M290.804 146.64H283.816V150.218H290.804V146.64Z" fill="#EF8A62"/>
<path d="M297.482 153.264H290.494V156.842H297.482V153.264Z" fill="#EF8A62"/>
<path d="M320.847 153.261H298.943V156.839H320.847V153.261Z" fill="white"/>
<path d="M344.211 153.256H322.307V156.834H344.211V153.256Z" fill="white"/>
<path d="M355.268 153.253H345.672V156.831H355.268V153.253Z" fill="#F4CA60"/>
<path d="M300.978 159.89H293.99V163.468H300.978V159.89Z" fill="#EF8A62"/>
<path d="M322.009 159.887H302.438V163.465H322.009V159.887Z" fill="#A3D2F4"/>
<path d="M343.043 159.882H323.471V163.46H343.043V159.882Z" fill="white"/>
<path d="M311.256 180.297H293.994V183.875H311.256V180.297Z" fill="#EF8A62"/>
<path d="M329.926 180.293H312.664V183.871H329.926V180.293Z" fill="white"/>
<path d="M348.596 180.289H331.334V183.867H348.596V180.289Z" fill="#F4CA60"/>
<path d="M329.512 194.87H309.746V198.448H329.512V194.87Z" fill="white"/>
<path d="M316.736 200.967H309.748V204.545H316.736V200.967Z" fill="#EF8A62"/>
<path d="M343.052 200.964H318.525V204.542H343.052V200.964Z" fill="#A3D2F4"/>
<path d="M349.358 200.961H344.221V204.539H349.358V200.961Z" fill="#F4CA60"/>
<path d="M334.574 209.71H327.586V213.288H334.574V209.71Z" fill="#A3D2F4"/>
<path d="M341.564 217.792H334.576V221.37H341.564V217.792Z" fill="#EF8A62"/>
<path d="M350.287 217.791H343.299V221.369H350.287V217.791Z" fill="#A3D2F4"/>
<path d="M376.246 217.787H352.021V221.365H376.246V217.787Z" fill="white"/>
<path d="M341.564 225.876H334.576V229.454H341.564V225.876Z" fill="#A3D2F4"/>
<path d="M382.087 225.868H370.354V229.446H382.087V225.868Z" fill="#F4CA60"/>
<path d="M369.155 225.872H347.264V229.45H369.155V225.872Z" fill="white"/>
<path d="M417.17 400.781C417.17 400.781 418.903 444.445 419.942 444.561C420.982 444.677 461.98 446.023 463.828 444.983C465.676 443.943 436.922 428.735 433.457 427.696L433.11 395.121L417.17 400.781Z" fill="#F2CBB6"/>
<path d="M428.837 437.283C428.837 437.283 428.82 425.058 418.375 426.55C418.375 426.55 417.5 444.791 418.375 445.369C419.25 445.947 464.407 447.87 465.562 446.253C466.717 444.636 451.003 434.761 447.089 434.164C443.174 433.567 442.006 441.095 442.006 441.095C442.006 441.095 430.223 440.749 428.837 437.283Z" fill="#CCED98"/>
<path d="M373.58 390.819C373.58 390.819 355.911 444.802 354.865 444.824C353.819 444.846 316.212 445.167 314.464 443.966C312.717 442.765 340.436 430.53 343.981 429.806L352.253 386.82L373.58 390.819Z" fill="#F2CBB6"/>
<path d="M349.088 438.47C349.088 438.47 351.042 425.615 359.492 432.796C359.492 432.796 357.277 445.274 356.354 445.771C355.431 446.268 313.63 446.791 312.625 445.077C311.62 443.363 331.236 432.663 333.015 434.118C334.868 435.634 333.203 439.393 333.203 439.393C333.203 439.393 346.607 439.882 349.088 438.47Z" fill="#CCED98"/>
<path d="M382.965 162.463C380.205 162.463 377.566 161.485 375.455 159.664C373.123 157.653 371.714 154.855 371.487 151.784C371.26 148.714 372.243 145.738 374.253 143.407C376.264 141.075 379.063 139.666 382.133 139.439C388.468 138.976 394.009 143.747 394.478 150.086C394.945 156.425 390.169 161.963 383.831 162.431C383.541 162.452 383.253 162.463 382.965 162.463ZM382.989 141.171C382.748 141.171 382.507 141.179 382.263 141.198C379.662 141.39 377.292 142.583 375.588 144.558C373.885 146.533 373.053 149.053 373.245 151.654C373.437 154.255 374.63 156.625 376.605 158.328C378.58 160.032 381.101 160.868 383.7 160.671C389.069 160.275 393.114 155.584 392.719 150.215C392.341 145.091 388.048 141.171 382.989 141.171Z" fill="#EF8A62"/>
<path d="M383.673 133.654C383.673 133.654 375.348 171.793 385.136 180.083C394.925 188.372 388.731 131.15 388.731 131.15L383.673 133.654Z" fill="#F2CBB6"/>
<path d="M431.656 197.728C431.656 197.728 448.934 239.285 446.376 248.746C443.817 258.207 425.596 262.578 425.596 262.578L431.656 197.728Z" fill="#F2CBB6"/>
<path d="M383.434 218.173C383.434 218.173 330.593 207.931 326.902 198.681C323.211 189.431 321.455 155.48 321.455 155.48L329.523 156.137C329.523 156.137 335.322 187.145 339.13 187.81C342.938 188.475 390.226 194.254 390.226 194.254L383.434 218.173Z" fill="#F2CBB6"/>
<path d="M431.656 197.728C431.656 197.728 426.845 242.829 429.73 270.483C432.615 298.137 374.949 266.319 374.949 266.319C374.949 266.319 375.87 263.579 381.393 212.91C386.916 162.241 431.656 197.728 431.656 197.728Z" fill="#F2CBB6"/>
<path d="M431.095 268.711C431.095 268.711 446.904 404.224 441.381 407.945C435.857 411.666 410.321 411.896 404.432 410.675L400.733 321.673L394.186 320.472L379.728 408.772C379.728 408.772 344.798 405.546 340.175 404.644C335.552 403.743 370.508 263.691 372.724 263.496C376.852 263.133 431.095 268.711 431.095 268.711Z" fill="#EF8A62"/>
<path d="M430.352 286.678C430.352 286.678 430.754 306.349 427.609 309.996C424.464 313.643 417.397 315.478 417.397 315.478C417.397 315.478 405.857 314.229 404.504 310.126C403.15 306.023 403.715 285.23 403.715 285.23L430.352 286.678Z" fill="#BF7759"/>
<path d="M371.183 280.585C371.183 280.585 366.348 299.657 368.588 303.92C370.828 308.183 377.298 311.567 377.298 311.567C377.298 311.567 388.822 312.957 391.067 309.266C393.312 305.575 397.458 285.192 397.458 285.192L371.183 280.585Z" fill="#BF7759"/>
<path d="M429.122 270.092L428.649 278.653L425.824 278.478L426.139 269.928L429.122 270.092Z" fill="#BF7759"/>
<path d="M418.852 269.39L418.191 278.119L415.113 278.039L415.516 268.945L418.852 269.39Z" fill="#BF7759"/>
<path d="M408.011 269.071L406.968 276.952L403.719 276.654L404.491 268.378L408.011 269.071Z" fill="#BF7759"/>
<path d="M401.358 268.608L400.598 276.269L397.359 275.817L398.317 267.988L401.358 268.608Z" fill="#BF7759"/>
<path d="M389.598 267.481L388.51 275.627L385.049 275.575L386.109 267.047L389.598 267.481Z" fill="#BF7759"/>
<path d="M379.248 266.709L377.737 274.324L374.391 273.751L375.731 265.893L379.248 266.709Z" fill="#BF7759"/>
<path d="M362.251 188.569C362.251 188.569 387.343 191.788 388.307 192.093C389.271 192.398 424.912 198.226 424.912 198.226L429.328 198.684C433.902 199.158 437.686 202.454 438.783 206.921L442.753 223.093C442.753 223.093 436.328 228.384 429.052 228.786L431.226 258.214C431.226 258.214 379.528 255.066 375.609 253.85L378.96 218.505C378.96 218.505 373.396 217.108 357.507 213.575C357.507 213.575 355.695 199.233 362.251 188.569Z" fill="white"/>
<path d="M387.573 136.922C387.573 136.922 378.254 136.206 377.293 134.593C376.331 132.979 381.247 119.7 409.918 120.109C438.589 120.518 435.415 161.186 435.415 161.186L432.326 222.464C432.326 222.464 402.861 229.295 377.808 215.422L387.573 136.922Z" fill="#A3D2F4"/>
<path d="M374.44 144.588C374.44 144.588 405.836 142.905 408.494 145.265C411.152 147.625 411.552 152.052 408.364 151.411C405.176 150.77 409.821 146.409 404.864 146.556C399.908 146.703 373.297 146.515 373.297 146.515L374.44 144.588Z" fill="#EF8A62"/>
<path d="M388.803 147.67C388.803 147.67 390.968 143.574 396.063 145.088C401.158 146.602 398.524 164.556 388.631 160.173L388.803 147.67Z" fill="#F2CBB6"/>
<path d="M321.801 161.136C321.801 161.136 316.102 148.825 317.652 146.887C317.892 146.587 319.597 146.737 319.967 146.315C320.409 145.812 320.799 145.324 321.127 145.187C322.302 144.695 323.26 145.615 323.26 145.615C323.26 145.615 324.327 144.045 325.102 144.119C325.877 144.193 326.703 144.753 326.703 144.753C326.703 144.753 326.315 134.391 328.447 133.81C330.579 133.229 330.894 147.123 330.894 147.123C330.894 147.123 333.439 147.775 333.439 148.867C333.439 149.959 334.393 155.711 330.316 160.15C327.507 163.205 321.801 161.136 321.801 161.136Z" fill="#F2CBB6"/>
<path d="M273.484 109.936L270.5 123.836H272.975L275.813 109.936" fill="white"/>
<path d="M280.106 109.936L277.123 123.836H279.597L282.435 109.936" fill="white"/>
<path d="M287.928 111.536H285.199V114.265H287.928V111.536Z" fill="white"/>
<path d="M287.928 119.688H285.199V122.416H287.928V119.688Z" fill="white"/>
<path d="M392.748 90.1414C392.748 87.8684 390.905 86.0254 388.632 86.0254C386.359 86.0254 384.516 87.8684 384.516 90.1414C384.516 92.4144 386.359 94.2574 388.632 94.2574C390.905 94.2574 392.748 92.4144 392.748 90.1414Z" fill="#F4CA60"/>
<path d="M380.308 90.1414C380.308 87.8684 378.465 86.0254 376.192 86.0254C373.919 86.0254 372.076 87.8684 372.076 90.1414C372.076 92.4144 373.919 94.2574 376.192 94.2574C378.465 94.2574 380.308 92.4144 380.308 90.1414Z" fill="#EF8A62"/>
<path d="M367.871 90.1414C367.871 87.8684 366.028 86.0254 363.755 86.0254C361.482 86.0254 359.639 87.8684 359.639 90.1414C359.639 92.4144 361.482 94.2574 363.755 94.2574C366.028 94.2574 367.871 92.4144 367.871 90.1414Z" fill="#CCED98"/>
<path d="M571.416 237.574C571.416 237.574 525.679 233.605 523.978 227.936C522.277 222.267 519.298 223.036 512.211 183.218L523.55 180.847C523.55 180.847 537.117 210.867 538.626 211.465C540.136 212.063 574.257 195.925 582.85 196.482C591.442 197.038 577.937 238.213 571.416 237.574Z" fill="#C8A34C"/>
<path opacity="0.2" d="M580.614 454.558C630.111 454.558 670.236 451.224 670.236 447.11C670.236 442.997 630.111 439.662 580.614 439.662C531.117 439.662 490.992 442.997 490.992 447.11C490.992 451.224 531.117 454.558 580.614 454.558Z" fill="#383838"/>
<path d="M631.384 430.84C631.384 430.84 635.483 446.828 634.458 447.443C633.433 448.058 585.06 448.673 583.216 447.443C581.372 446.213 582.971 438.424 608.919 430.84C608.919 430.84 624.21 425.921 631.384 430.84Z" fill="#A3D2F4"/>
<mask id="mask2_3546_7330" style="mask-type:luminance" maskUnits="userSpaceOnUse" x="582" y="428" width="53" height="21">
<path d="M631.384 430.84C631.384 430.84 635.483 446.828 634.458 447.443C633.433 448.058 585.06 448.673 583.216 447.443C581.372 446.213 582.971 438.424 608.919 430.84C608.92 430.84 624.21 425.921 631.384 430.84Z" fill="white"/>
</mask>
<g mask="url(#mask2_3546_7330)">
<path d="M590.244 436.128C590.459 436.128 599.053 436.056 602.419 442.43H624.906C624.906 442.43 628.916 434.266 637.51 437.632C646.104 440.998 641.234 453.602 641.234 453.602L579 449.377L583.225 436.558L590.244 436.128Z" fill="white"/>
</g>
<path d="M628.825 414.529L629.903 431.726C629.903 431.726 623.769 435.27 615.774 431.571L615.102 414.53H628.825V414.529Z" fill="#E29D7F"/>
<path d="M573.957 430.84C573.957 430.84 578.056 446.828 577.032 447.443C576.007 448.058 527.634 448.673 525.79 447.443C523.945 446.213 525.545 438.424 551.493 430.84C551.493 430.84 566.783 425.921 573.957 430.84Z" fill="#A3D2F4"/>
<mask id="mask3_3546_7330" style="mask-type:luminance" maskUnits="userSpaceOnUse" x="525" y="428" width="53" height="21">
<path d="M573.957 430.84C573.957 430.84 578.056 446.828 577.032 447.443C576.007 448.058 527.634 448.673 525.79 447.443C523.945 446.213 525.545 438.424 551.493 430.84C551.493 430.84 566.783 425.921 573.957 430.84Z" fill="white"/>
</mask>
<g mask="url(#mask3_3546_7330)">
<path d="M532.816 436.128C533.031 436.128 541.625 436.056 544.991 442.43H567.478C567.478 442.43 571.488 434.266 580.082 437.632C588.676 440.998 583.806 453.602 583.806 453.602L521.572 449.377L525.797 436.558L532.816 436.128Z" fill="white"/>
</g>
<path d="M572.78 415.68L571.417 431.283C571.417 431.283 563.843 434.141 558.094 430.81L559.214 413.602L572.78 415.68Z" fill="#E29D7F"/>
<path d="M576.563 421.081C576.563 421.081 576.167 428.482 574.224 429.144C572.28 429.806 570.728 429.2 568.26 429.239C565.792 429.279 560.957 429.176 558.79 428.759C556.624 428.343 555.584 427.638 556.704 420.496C557.824 413.355 576.563 421.081 576.563 421.081Z" fill="#D9D9D9"/>
<path d="M630.574 428.318C630.724 429.606 629.412 430.14 628.689 430.341C627.103 430.782 623.933 430.81 622.296 430.985C619.387 431.296 618.781 430.221 615.871 430.532C615.417 430.58 612.799 430.616 612.372 430.454C611.5 430.123 612.127 430.015 611.95 429.099C611.753 428.085 611.237 426.995 611.171 425.964C611.163 425.834 611.156 425.701 611.192 425.575C611.262 425.333 611.477 425.165 611.684 425.023C613.693 423.648 616.149 423.11 618.554 422.731C620.428 422.435 622.33 422.218 624.22 422.385C625.973 422.54 627.905 423.052 629.351 424.104C629.88 424.489 630.839 423.823 630.897 424.455C630.979 425.362 630.463 427.365 630.574 428.318Z" fill="#D9D9D9"/>
<path d="M634.229 306.512C634.229 306.512 634.345 364.766 635.089 366.03C635.639 366.964 636.127 405.108 636.345 417.668C636.418 421.904 633.23 425.478 629.014 425.9C623.735 426.428 616.72 427.059 611.661 427.251C608.772 427.36 606.281 425.248 605.904 422.382L596.654 328.016C596.654 328.016 590.434 326.963 589.752 326.963C589.168 326.963 581.805 404.407 579.719 420.213C579.405 422.59 577.357 424.342 574.96 424.286C567.646 424.115 560.897 426.526 553.247 421.241C545.187 415.673 563.794 292.208 563.794 292.208L634.229 306.512Z" fill="white"/>
<path d="M632.386 310.863C632.386 310.863 633.889 329.635 632.386 330.766C630.882 331.897 619.751 326.921 615.93 324.659C612.11 322.397 610.074 299.483 610.074 299.483L632.386 310.863Z" fill="#D9D9D9"/>
<path d="M575.923 295.257C575.923 295.257 570.947 325.112 568.686 326.921C566.424 328.73 560.145 328.406 560.145 328.406L564.841 295.257H575.923Z" fill="#D9D9D9"/>
<path d="M594.693 304.229C594.693 304.229 596.024 323.602 595.587 324.33C595.15 325.058 589.615 323.893 589.323 323.165C589.032 322.437 589.323 301.534 589.323 301.534L594.693 304.229Z" fill="#D9D9D9"/>
<path d="M615.645 181.499C615.645 181.499 614.646 194.817 615.645 195.15C616.644 195.483 628.797 203.807 628.797 203.807L605.99 211.465L583.516 207.636L582.85 196.482C582.85 196.482 593.671 192.32 594.337 192.154C595.003 191.987 596.834 180.667 596.834 180.667L615.645 181.499Z" fill="#C48B71"/>
<path d="M626.3 149.535C626.3 149.535 622.305 180.499 618.476 183.163C614.647 185.827 587.844 191.82 584.348 183.995C580.852 176.171 581.518 136.716 583.682 134.885C585.846 133.054 615.312 133.553 615.312 133.553L626.3 149.535Z" fill="#E29D7F"/>
<path d="M607.654 159.976C607.654 162.147 608.474 163.907 609.485 163.907C610.496 163.907 611.316 162.147 611.316 159.976C611.316 157.805 610.496 156.045 609.485 156.045C608.474 156.045 607.654 157.805 607.654 159.976Z" fill="#32241B"/>
<path d="M587.254 159.976C587.254 162.147 588.074 163.907 589.085 163.907C590.096 163.907 590.916 162.147 590.916 159.976C590.916 157.805 590.096 156.045 589.085 156.045C588.074 156.045 587.254 157.805 587.254 159.976Z" fill="#32241B"/>
<path d="M596.517 180.525C598.257 183.145 602.399 183.454 605.769 181.215C609.139 178.977 610.46 175.039 608.72 172.419C606.98 169.799 605.546 173.568 602.177 175.806C598.807 178.045 594.777 177.905 596.517 180.525Z" fill="white"/>
<g opacity="0.5">
<path d="M597.917 153.447C598.009 155.574 598.116 157.742 597.724 159.848C597.536 160.857 597.266 161.938 596.718 162.817C596.191 163.664 595.298 164.151 594.682 164.922C593.727 166.117 593.329 167.777 594.266 169.102C595.3 170.566 597.117 170.854 598.778 171.011C599.511 171.08 599.506 169.935 598.778 169.867C597.282 169.726 594.831 169.327 594.859 167.337C594.884 165.576 596.779 164.814 597.627 163.514C599.484 160.671 599.2 156.673 599.06 153.447C599.029 152.714 597.885 152.71 597.917 153.447Z" fill="#E29D7F"/>
</g>
<path d="M628.798 155.362C628.798 155.362 634.292 151.533 635.624 155.362C636.956 159.191 631.926 170.202 626.301 164.851L628.798 155.362Z" fill="#C48B71"/>
<path d="M569.249 227.936C569.249 227.936 552.251 306.081 556.247 307.921C560.244 309.761 633.671 313.34 635.837 311.043C638.003 308.746 650.379 205.5 625.824 201.458C625.824 201.458 598.108 210.545 582.848 196.482C582.848 196.482 571.977 205.424 569.249 227.936Z" fill="#F4CA60"/>
<path d="M623.011 169.55C623.011 169.55 622.046 152.719 621.081 148.722C620.116 144.724 611.845 143.621 612.948 136.453C612.948 136.453 606.797 144.448 598.775 141.002C590.754 137.556 596.529 135.901 596.529 135.901C596.529 135.901 588.191 144.448 581.89 142.104C575.589 139.76 580.139 135.901 580.139 135.901C580.139 135.901 568.422 132.317 572.144 124.597C575.866 116.877 580.553 120.737 580.553 120.737C580.553 120.737 576.304 105.298 587.251 104.333C598.198 103.368 599.496 116.188 599.496 116.188C599.496 116.188 604.858 108.606 611.316 112.88C617.773 117.153 616.533 121.84 616.533 121.84C616.533 121.84 633.749 121.151 631.068 134.798C631.068 134.798 642.862 133.557 630.18 156.992C630.18 156.992 630.179 172.32 623.011 169.55Z" fill="#735546"/>
<path d="M497.508 173.487V171.013L546.189 183.455L589.084 203.271V206.029L541.108 208.57L497.508 173.487Z" fill="#383838"/>
<path d="M589.084 203.271L541.612 205.483L497.508 171.013L545.731 172.123L589.084 203.271Z" fill="#222220"/>
<path d="M537.965 173.425L574.3 201.595H581.459L543.931 173.425H537.965Z" fill="#383838"/>
<path d="M535.997 173.425L536.614 173.931L570.362 201.595L562.376 201.642L530.627 174.828L535.997 173.425Z" fill="#383838"/>
<path d="M529.285 176.139L558.997 201.642L551.211 201.595L524.184 177.119L529.285 176.139Z" fill="#383838"/>
<path d="M533.58 188.89L546.02 202.063H538.86L527.674 190.458L533.58 188.89Z" fill="#383838"/>
<path d="M541.107 208.57L533.832 144.332L488.576 115.003L497.507 173.487L541.107 208.57Z" fill="#383838"/>
<path d="M545.73 208.325C545.73 208.325 550.059 213.643 560.924 218.238C571.788 222.833 571.415 217.04 571.415 217.04V213.951C571.415 213.951 573.136 202.037 569.25 199.774C565.363 197.51 560.058 199.874 567.253 204.313C567.253 204.313 566.308 208.856 564.607 208.569C562.906 208.282 557.445 207.704 557.445 207.704" fill="#E29D7F"/>
<path d="M560.924 218.238C560.924 218.238 571.25 253.603 587.252 262.62C611.316 276.18 645.385 242.993 639.807 218.674C634.229 194.356 622.941 200.978 623.454 202.129C623.454 202.129 601.478 240.315 598.109 239.423C598.109 239.423 573.375 215.63 571.415 213.951L560.924 218.238Z" fill="#E8BA52"/>
<path d="M640.413 76.9055C640.413 76.9055 635.664 115.892 640.87 128.052C646.076 140.212 704.734 134.609 712.603 131.152C720.472 127.695 717.184 73.3655 713.608 70.5045C710.03 67.6435 647.983 61.5255 640.413 76.9055Z" fill="white"/>
<path d="M659.669 125.905C656.45 131.628 640.871 151.474 640.871 151.474L686.136 129.482L659.669 125.905Z" fill="white"/>
<path d="M670.266 85.7686L659.777 100.079L671.776 115.569L674.926 113.272L664.52 100.088L674.167 88.2596L670.266 85.7686Z" fill="#A3D2F4"/>
<path d="M683.727 88.252L696.677 99.163L686.285 113.422L688.276 115.86L701.415 98.659L685.349 85.416L683.727 88.252Z" fill="#A3D2F4"/>
</svg>
